/* XPM */
static char *b77fb743291c46f0b4b6b72f30b0763dGKdFj8tdo1KvrvGO[] = {
/* columns rows colors chars-per-pixel */
"64 64 11 1 ",
"  c black",
". c #0C3730",
"X c #1B7B6B",
"o c #209581",
"O c #2CCDB1",
"+ c #30DBBD",
"@ c #4AEDD1",
"# c #8CF4E2",
"$ c #A2F6E7",
"% c #D1FAF3",
"& c white",
/* pixels */
"                                                                ",
"                                                                ",
"                                                                ",
"                                                                ",
"                                                                ",
"                                                                ",
"                                                                ",
"                                                                ",
"                                                                ",
"                                                                ",
"                                                                ",
"                                                                ",
"                                                                ",
"                                                                ",
"                                                                ",
"                                                                ",
"                                                                ",
"                                                                ",
"                                                                ",
"                                                                ",
"                            ........                            ",
"                            ........                            ",
"                          ..&&&&&&&&..                          ",
"                          ..&&&&&&&&..                          ",
"                        ..&&$$$$$$%%++..                        ",
"                        ..&&$$$$$$%%++..                        ",
"                      ..&&%%$$$$&&@@@@..                        ",
"                      ..&&%%$$$$&&@@@@..                        ",
"                      ..&&$$&&%%%%%%@@++..                      ",
"                      ..&&$$&&%%%%%%@@++..                      ",
"                    ..&&$$&&########oo@@..                      ",
"                    ..&&$$&&########oo@@..                      ",
"                    ..&&$$%%########oo@@++..                    ",
"                    ..&&$$%%########oo@@++..                    ",
"                    ..&&%%OO########ooXXXX..                    ",
"                    ..&&%%OO########ooXXXX..                    ",
"                    ..&&@@@@ooooooooOOOOoo..                    ",
"                    ..&&@@@@ooooooooOOOOoo..                    ",
"                      ..@@XXOOOOOOOOXXOO..                      ",
"                      ..@@XXOOOOOOOOXXOO..                      ",
"                      ..++XXOOOOOOOOXXoo..                      ",
"                      ..++XXOOOOOOOOXXoo..                      ",
"                        ..ooOOOOOOOOoo..                        ",
"                        ..ooOOOOOOOOoo..                        ",
"                          ............                          ",
"                          ............                          ",
"                                                                ",
"                                                                ",
"                                                                ",
"                                                                ",
"                                                                ",
"                                                                ",
"                                                                ",
"                                                                ",
"                                                                ",
"                                                                ",
"                                                                ",
"                                                                ",
"                                                                ",
"                                                                ",
"                                                                ",
"                                                                ",
"                                                                ",
"                                                                "
};
