/* XPM */
static char *_8aae77f19e54111ce4c1ac05c1d6d479pVMgcfD0aOrLbeB[] = {
/* columns rows colors chars-per-pixel */
"64 64 11 1 ",
"  c #000000",
". c #2A2D00",
"X c #383E00",
"o c #742303",
"O c #204626",
"+ c #265A25",
"@ c #2B702A",
"# c #9B221A",
"$ c #BF2529",
"% c #ED302C",
"& c #4A8F28",
/* pixels */
"                                                                ",
"                                                                ",
"                                                                ",
"                                                                ",
"                                                                ",
"                                                                ",
"                                                                ",
"                                                                ",
"                                                                ",
"                                                                ",
"                                                                ",
"                                                                ",
"                                                                ",
"                                                                ",
"                                                                ",
"                                                                ",
"                                                                ",
"                                                                ",
"                                                                ",
"                                                                ",
"                                $$%%%%$$                        ",
"                                $$%%%%$$                        ",
"                              $$%%%%%%%%$$                      ",
"                              $$%%%%%%%%$$                      ",
"                        $$$$%%%%$$%%%%$$##                      ",
"                        $$$$%%%%$$%%%%$$##                      ",
"                      $$%%%%$$##oo##$$$$$$                      ",
"                      $$%%%%$$##oo##$$$$$$                      ",
"                    $$%%%%$$##oooo$$%%%%%%$$                    ",
"                    $$%%%%$$##oooo$$%%%%%%$$                    ",
"                    $$%%$$$$oo##$$%%%%%%$$##                    ",
"                    $$%%$$$$oo##$$%%%%%%$$##                    ",
"                      $$$$%%%%%%##$$$$$$##                      ",
"                      $$$$%%%%%%##$$$$$$##                      ",
"                        %%%%%%$$####$$##                        ",
"                        %%%%%%$$####$$##                        ",
"                        ##$$$$##++                              ",
"                        ##$$$$##++                              ",
"                          ####OO@@                              ",
"                          ####OO@@                              ",
"                              @@++                              ",
"                              @@++                              ",
"                              &&@@XX..                          ",
"                              &&@@XX..                          ",
"                              @@++..                            ",
"                              @@++..                            ",
"                              &&++                              ",
"                              &&++                              ",
"                          XXXX&&@@                              ",
"                          XXXX&&@@                              ",
"                            ..&&++        &&@@++                ",
"                            ..&&++        &&@@++                ",
"                  ++@@        &&@@    @@&&++                    ",
"                  ++@@        &&@@    @@&&++                    ",
"                    ++&&@@    @@++  @@&&OO                      ",
"                    ++&&@@    @@++  @@&&OO                      ",
"                      OO&&@@  &&++@@&&OO                        ",
"                      OO&&@@  &&++@@&&OO                        ",
"                        ++&&  @@++@@++                          ",
"                        ++&&  @@++@@++                          ",
"                        OO++&&@@OO++OO                          ",
"                        OO++&&@@OO++OO                          ",
"                          OO@@++OOOO                            ",
"                          OO@@++OOOO                            "
};
