/* XPM */
static char *f4871795afc24301bd5d52013589fe79qhI48qLuUUjYtgqc[] = {
/* columns rows colors chars-per-pixel */
"64 64 75 1 ",
"  c black",
". c #5F4F27",
"X c #705F35",
"o c #81602B",
"O c #8C6932",
"+ c #906C34",
"@ c #906E37",
"# c #89703C",
"$ c #8C733D",
"% c #99793F",
"& c #8A7246",
"* c #997942",
"= c #997D51",
"- c #A17B45",
"; c #B38D4C",
": c #A98E5F",
"> c #A59058",
", c #AE985F",
"< c #AE9561",
"1 c #B19765",
"2 c #B09866",
"3 c #B19B69",
"4 c #B79E6F",
"5 c #A79571",
"6 c #B29E78",
"7 c #B7A06F",
"8 c #B8A06E",
"9 c #B6A174",
"0 c #B9A173",
"q c #BBA273",
"w c #BCA572",
"e c #BCA474",
"r c #B7A27A",
"t c #C5AE74",
"y c #C5AD77",
"u c #C5AE77",
"i c #C1A879",
"p c #C1AA7B",
"a c #C2AD7A",
"s c #C3AF7D",
"d c #C4AE7C",
"f c #C5AF7D",
"g c #C5B07D",
"h c #C6B17E",
"j c #C8B279",
"k c #C6AF81",
"l c #C2B085",
"z c #C9B281",
"x c #C9B381",
"c c #CAB480",
"v c #CBB681",
"b c #CCB782",
"n c #CFBA81",
"m c #C8B689",
"M c #CCB78F",
"N c #CCB88F",
"B c #CFBB90",
"V c #D2BD93",
"C c #D1BD94",
"Z c #D2C095",
"A c #D6C297",
"S c #D7C498",
"D c #D6C499",
"F c #DAC598",
"G c #DECB9F",
"H c #DAC9A4",
"J c #DBC9A5",
"K c #DACAA4",
"L c #DCCBA6",
"P c #DECDA6",
"I c #DECEA8",
"U c #E0CEA8",
"Y c #E0D1AA",
"T c #E5D4AD",
"R c #E4D4AE",
/* pixels */
"                                                                ",
"                                                                ",
"                                                                ",
"                                                                ",
"                                                                ",
"                                                                ",
"                                                                ",
"                                                                ",
"                                                                ",
"                                                                ",
"                                                                ",
"                                                                ",
"                                                                ",
"                                                                ",
"                                                                ",
"                                                                ",
"                                                                ",
"                                                                ",
"                                                                ",
"                                                                ",
"                                                                ",
"                                                                ",
"                                  OO****OO                      ",
"                                  OO****OO                      ",
"                                OO66rr--;;..                    ",
"                                OO66rr--;;..                    ",
"                              OO==eeHHqqnn,,..                  ",
"                              OO==eeHHq9nn,,..                  ",
"                            OO55MMsssgPUFF>>..                  ",
"                            OO55MBssffUUFF>>..                  ",
"                        OO**uuqqYYCCbbnbll99..                  ",
"                        OO**uuqqYYCBxbbbll99..                  ",
"                      OO<<jjJPZZssDDIIaa44$$..                  ",
"                      OO<<jjPJZZasDFIIaa44$$..                  ",
"                      **BBMMppIIffxbAAJJ33..                    ",
"                      **BBMMppIUffxhAAJJ33..                    ",
"                    **::RRxxxxghPPVVii11##..                    ",
"                    **::RRxxbhghPPVVii11##..                    ",
"                    **11GGRRKKww48SSkkOO..                      ",
"                    **11GGRRKKww88SSkkOO..                      ",
"                      &&yyttJUmm88@@oo..                        ",
"                      &&yuttPPmm89@@oo..                        ",
"                      XX++****%%OO..                            ",
"                      XX+@****%%OO..                            ",
"                          ........                              ",
"                          ........                              ",
"                                                                ",
"                                                                ",
"                                                                ",
"                                                                ",
"                                                                ",
"                                                                ",
"                                                                ",
"                                                                ",
"                                                                ",
"                                                                ",
"                                                                ",
"                                                                ",
"                                                                ",
"                                                                ",
"                                                                ",
"                                                                ",
"                                                                ",
"                                                                "
};
