/* XPM */
static char *d355db1a3d60417ba3a3a8f822599d57TrlApbRKVkVykkdM[] = {
/* columns rows colors chars-per-pixel */
"64 64 256 2 ",
"   c #020202",
".  c #0B0B0A",
"X  c #0E0E10",
"o  c #0E1317",
"O  c #131413",
"+  c #151718",
"@  c #141A1B",
"#  c #1B1C1C",
"$  c #250B13",
"%  c #271A18",
"&  c #371918",
"*  c #1E211C",
"=  c #302C0F",
"-  c #27241C",
";  c #38251D",
":  c #0F1523",
">  c #2B112C",
",  c #1E2325",
"<  c #242422",
"1  c #2B2A27",
"2  c #2B2E2C",
"3  c #3B2621",
"4  c #392A26",
"5  c #3C3329",
"6  c #3A2934",
"7  c #393435",
"8  c #4A1712",
"9  c #5A1D16",
"0  c #5C300F",
"q  c #4B2317",
"w  c #522A12",
"e  c #572816",
"r  c #5C2B15",
"t  c #5D3412",
"y  c #593816",
"u  c #5C3C14",
"i  c #5E3219",
"p  c #432C23",
"a  c #462B28",
"s  c #4B2F2B",
"d  c #572825",
"f  c #493629",
"g  c #4D332C",
"h  c #583727",
"j  c #53352C",
"k  c #553A2C",
"l  c #5B3C2B",
"z  c #482E32",
"x  c #552B30",
"c  c #453235",
"v  c #4A3334",
"b  c #463539",
"n  c #4A363A",
"m  c #47393A",
"M  c #4C3A3C",
"N  c #523533",
"B  c #543A35",
"V  c #5B3D34",
"C  c #523B3C",
"Z  c #583C39",
"A  c #683529",
"S  c #6F372F",
"D  c #653B33",
"F  c #5C4216",
"G  c #5C4419",
"H  c #5E412B",
"J  c #595029",
"K  c #4C453B",
"L  c #4D423D",
"P  c #534335",
"I  c #5C4334",
"U  c #52443B",
"Y  c #5D433B",
"T  c #53493C",
"R  c #5C4C3B",
"E  c #62442D",
"W  c #654C2A",
"Q  c #765022",
"!  c #634433",
"~  c #684834",
"^  c #6A4C35",
"/  c #63443B",
"(  c #634C3C",
")  c #6B4D3A",
"_  c #764739",
"`  c #695335",
"'  c #64523D",
"]  c #6B543D",
"[  c #73543D",
"{  c #75583D",
"}  c #756A2F",
"|  c #373648",
" . c #4D3D42",
".. c #513E42",
"X. c #3D4046",
"o. c #4E4344",
"O. c #484547",
"+. c #4E4549",
"@. c #4E4A4B",
"#. c #534344",
"$. c #5C4542",
"%. c #534B44",
"&. c #5C4B43",
"*. c #514649",
"=. c #524A4B",
"-. c #5D4D49",
";. c #5B5345",
":. c #585248",
">. c #4B4A57",
",. c #534D53",
"<. c #514F59",
"1. c #585457",
"2. c #634C44",
"3. c #694E43",
"4. c #754B43",
"5. c #655442",
"6. c #6A5345",
"7. c #6C5B43",
"8. c #6C5349",
"9. c #675A48",
"0. c #755B44",
"q. c #775946",
"w. c #625955",
"e. c #755E59",
"r. c #776249",
"t. c #776658",
"y. c #634761",
"u. c #786D68",
"i. c #B50E19",
"p. c #86281C",
"a. c #992D1D",
"s. c #89371B",
"d. c #8B3D1C",
"f. c #D11517",
"g. c #EC1808",
"h. c #F12714",
"j. c #ED2927",
"k. c #92441E",
"l. c #8A5B1B",
"z. c #A94C1F",
"x. c #A4541A",
"c. c #A9521E",
"v. c #A55C1D",
"b. c #A6611E",
"n. c #A9681F",
"m. c #994822",
"M. c #85483B",
"N. c #8D5833",
"B. c #A34826",
"V. c #A34B26",
"C. c #A55826",
"Z. c #A4532B",
"A. c #A64F37",
"S. c #8E712C",
"D. c #A56523",
"F. c #A26D24",
"G. c #A27326",
"H. c #A4772A",
"J. c #A67A35",
"K. c #F47212",
"L. c #DF5D29",
"P. c #E5742C",
"I. c #833B48",
"U. c #874C42",
"Y. c #885647",
"T. c #8E544F",
"R. c #9B5849",
"E. c #9A5D53",
"W. c #AF5555",
"Q. c #886B54",
"!. c #9B6458",
"~. c #A66456",
"^. c #B86C5D",
"/. c #AE7052",
"(. c #905F61",
"). c #92776D",
"_. c #AB6C62",
"`. c #A97465",
"'. c #B77765",
"]. c #CD5C53",
"[. c #D17156",
"{. c #C87965",
"}. c #D57667",
"|. c #A48B2F",
" X c #D19713",
".X c #F88C0C",
"XX c #FDBA0B",
"oX c #F7AF17",
"OX c #D29136",
"+X c #E98B2C",
"@X c #DCAD31",
"#X c #ECA727",
"$X c #F3AC2F",
"%X c #E9B529",
"&X c #FDC70C",
"*X c #F4CE28",
"=X c #EDDE21",
"-X c #F6EC2D",
";X c #AA8248",
":X c #8F8274",
">X c #B58974",
",X c #D39155",
"<X c #E49F58",
"1X c #DDB04F",
"2X c #EAB849",
"3X c #CA8876",
"4X c #D08B70",
"5X c #E88C71",
"6X c #FFCC44",
"7X c #667087",
"8X c #707FAD",
"9X c #6F8CA2",
"0X c #928B8F",
"qX c #B4938A",
"wX c #A69C9A",
"eX c #B79B96",
"rX c #AAA29E",
"tX c #BDAA99",
"yX c #969CAC",
"uX c #ADA5A2",
"iX c #AFA8A3",
"pX c #ACAAA9",
"aX c #B1A9A6",
"sX c #B4A8A5",
"dX c #B3ACA9",
"fX c #B6B1AD",
"gX c #A8AAB9",
"hX c #ABB6B9",
"jX c #B8B8B6",
"kX c #C99487",
"lX c #CF968C",
"zX c #D79989",
"xX c #E1A490",
"cX c #C6B3AD",
"vX c #C6BBB7",
"bX c #C6BEB9",
"nX c #B1C2BE",
"mX c #C6C1BC",
"MX c #CBC1BD",
"NX c #FFE8B0",
"BX c #95A7C9",
"VX c #B1B9C6",
"CX c #B1C3CB",
"ZX c #CEC5C3",
"AX c #CFCAC8",
"SX c #D1C8C5",
"DX c #D5CDCB",
"FX c #D9CECC",
"GX c #D7D0CD",
"HX c #DAD1CE",
"JX c #CCCEDA",
"KX c #D6D3D2",
"LX c #DCD4D1",
"PX c #EDDED9",
"IX c #F6F0D1",
"UX c #F4EBE8",
/* pixels */
"G.F.b.C.C.Z.m.s.d.k.V.V.V.B.x.v.v.v.x.v.F.F.F.F.F.F.G.F.v.x.x.x.x.x.x.x.x.x.x.x.x.x.x.x.x.x.C.C.F.F.F.G.G.l.d.p.p.p.a.C.G.F.D.v.",
"G.u u t i i w q 8 w e r e r r t t t t t u F u u F F F y 0 0 0 0 0 0 0 0 0 0 0 0 0 0 0 0 0 0 t y u F F F F i q 8 8 8 9 r u G D.r ",
"F.F %.=.=.=.=.#.%.%.*.$.#.$.%.*.#.%.#.#.*.*.#.#.#.$.U U #.U C C C C N C Z Z B B B C C Z D Y Y $.$.Y U &.2.2.2.&.2.2.2.3.8.8.C.t ",
"D.t =.=.=.=.#.$.#.%.$.#.#...$.*.=.%.#.*.#.U #.$.#.#.#.C ..C C N C C C N N N N N B B B V Y Y Y $.&.$.&.$.2.&.&.2...2.2.2.-.2.C.i ",
"x.e @.=.=.=.=.*.#.$.#.#...C #.#.*.+.*.+.+.o.#...$...#.C M M C C C C N C N N C B C V Z C I Y / Z Y Y Y $.&.2.2.-.&.2.2.2.$.8.C.i ",
"m.w =.=.,.=.=.*.=.#.#.#...#.#.*.*.*.%.+.o.o.L #...$...C M v M M v v C N C Z C B B Z V I V Y Y 2.$.$.2.2.2.2.2.2.2.2.2.2.2.8.C.r ",
"d.9 %.=.,.-.=.+.*.+.o. .+.*.*.*.%.*.+.+.o.U ........C M M C n v v n v C C B B V V V / / / / / / 2./ 2.2.3.2.2.2.2.8.5.5.6.6.k.e ",
"d.e +.@.=.=.*.+.o.o.+.o.o.*.=.*.+.o.+.#.#..... .....C M C n v M C C C C C C Y D / / / 2./ / / 2.3.3.2.3.3.3.8.6.8.2.3.8.3.6.d.9 ",
"m.e *.@.*.*.*.+.*.*.*...*.*.*.*.O. . . . . . .....M M M n C n C C C C N C V D / / / / / / D Y 2.) 3.3.3.6.8.8.8.8.3.8.8.8.6.k.q ",
"Z.r +.@.@.+.*.+.*.*.=.=.*. . .*. . . . .n n n  .n n n n n M n n v N N N j V V ! ! ! / D I ! ! ^ ) 3.6.3.6.6.8.8.8.6.8.8.8.8.s.w ",
"Z.i  .O.+.+.O.#.+.+.=.=.*.@.+.+. . .b  .n n n b n v n n v n n z v x B j V I ! ! ! E ! ! E ! ~ ) ) ) ) ) ) 8.8.8.8.8.8.8.8.7.k.8 ",
"Z.i  . .+. .+.+.+.*.*.,.*.*.*... . .n b  .c n n v n n n n v v z v g N l B D ! ! ! ~ ! ! E ~ ~ ^ ) ) [ 6.[ 6.q.q.q.q.q.0.q.7.k.w ",
"Z.i n n  .O.O.O.+.+.+.%.*.*.+.#. .b b n n n n n  .n n M n v z s N N j j j V V E ! ! E H ! ~ ^ ^ ) [ q.q.0.q.q.q.q.r.0.0.r.Q.d.q ",
"Z.i N n b  .M  . . .+.*.*. . . . .b b b n b  .n n n n v v z v j j x j N j l E E E E ! E E ^ ) ) ) [ [ 0.q.r.r.0.q.q.r.Q.t.I k.w ",
"Z.r M M m  .b  . . .o.o.+. . . .b b c b b m  .b c n v z v g s j j j j l D H E E E E ! ! ` ] ) ) [ q.q.0.r.q.0.0.t.Q.Q.5.% % V.r ",
"Z.r .. . .m  . . .o. . . .M b  .b  .b b M M n c n n v v z g j j j j j k h l l H H E E ^ ^ ] [ [ { { [ { r.0.r.Q.Q.' p $ % 4 Z.i ",
"C.i C #.+.M o. . . .....n n n  .m  .b b b b b b n v v g v g g j j j l j k f h H A E W ^ ^ [ [ [ { { [ [ 0.q.r.' f % % ; ; 3 Z.i ",
"C.t C =.#.#.#.o.....C n n n n  . .n b b b b b b c v s c s z g g g j h h k h h H H E E ) ) ] [ [ [ [ { Y.0.R k & % ; ; ; ; 4 C.i ",
"C.y  ...#.#.#.o.#.+. .C  . . ..... .n n b c c c 6 c z s s g g j j g h g h k h H W E E ^ ) [ [ [ [ { ` I f 3 & 3 ; 4 3 4 3 3 D.u ",
"D.y #.*.#.#.#.#.#.#.*.*.#.......#.#. .b b b b c c a z z s g g g s j g f h h h H H W W ^ ) { ) ! I j p p 4 f f f f p p p 4 p D.u ",
"C.t #.-.%.%.*.#.o.*.*.#.*... . ............. . .b c s s s j s p j g p q s w h h l W ^ [ ^ l s g g V D Y / / Z N g s a p p 3 D.u ",
"C.i *.*.#.#.#.#. .+...o. .+. ... .....#....... .n v v g z 4 s Y._.T.3.( I k h H E W E A A V ) q.e.Y.e.4.4.3.D l j g p p ; ; D.t ",
"v.0 &...U o.#.o. . . . .*. . .+. .+.*... .......U M n n 6 v E.4X/./.4X`.!.E.Y._ _ _ _ U.!.`.`.`.E.q.Y.4.3.D k j j g p q 3 3 c.0 ",
"b.t -.#.#.#.o.o.#. .+.+.....#.#............... .M M n 6 c ~.4X'.Y.!.'.^.'.{.{.'.^.'.>X3X>X`.`.!.Y.Y.q._ D D l N j e 3 3 3 q z.r ",
"F.u 2.#.*.*...#.o. ... .........+... .+.#....... .M m 7 W.}.{.U._ E.^.}.3X}.3XkXxXzXlXkXqX_._.!.T.U._ _ _ D l h s ; ; & % $ V.0 ",
"G.F o.m m M M  . . . . ...............*.#.#...C M  .7 U.xXzXR.A ~.}.3X3XzXkXkXlXzXzXlX3X_.~.E.R.N.U._ _ D j a ; & % O % % p z.r ",
"G.F 2 - 2 7 7 7 b n  . ...........#.....C ..C M ..7 ..5X5XE.A R.^.kXkX4XzXxXzXlXkX'.!.E.T.T.U.M.4.D x a 3 & - - ; 6 B T 7.r.z.r ",
"G.F @ @ @ * * * 7  .n n ................C #.C C C 6 ^.xXR.A ^.^.~.'.4X3XzXzXkXkX!.4.U.U.U.4._ x q p p 3 p g P ' 5.r.r.r.0.0.c.0 ",
"G.u # @ o O o @ 7 7 5 m C n M M ..C ..M a b #.U 7 D 5X{.W.[.5XW.M.E.R._.^.~.T.4.U.R.R.M.A q ; q a j V R 7.7.r.r.r.7.7.7.9.r.F.u ",
"G.F < # # @ @ @ * 1 < 5 5 b C C C N b Z /.M.v U 7 ^.[.B.[.{.U.M.d $ d 9 q d a D E.~.S a q j ! ` 0.0.r.0.7.7.7.7.7.7.7.7.7.9.H.G ",
"G.F # + # # # * # * # o @ 4 4 v ..v 6 Q IXNXQ 7 ! [.[.].Z.A A ~.~.S 8 > d $ 8 I.M.A q h 6.0.r.0.r.7.7.] 7.7.7.7.7.9.7.9.5.9.H.F ",
"F.F + X O + * < - * # o o o @ 2 v a 6 9 <XIX,Xk Y.5X5XR.d & d d U.R.T.4XS $ 8 d h l ^ r.] ' ] ] ' ' 7.] 7.7.` 7.9.' 5.' 5.5.G.G ",
"D.t % # @ @ # # * , * 1 @ o o * % < z 4 G.6X2XQ.3.A.U.C z x x q 9 9 M.~.h s k k P ( [ ] ] ' ] ] ] ' ' ' ] ' ' ' ' 5.5.' 7.' G.G ",
"x.t 1 , # % # : , # + - < * * * # + < J =X*Xx : a 3 p z 6 n V g > > d p B V V P L #.T ] ] 7.' 7.7.' ' ' ' R ' ' ' R ' ' 5.5.H.G ",
"v.t # # # < , + * o @ < < 1 * * # # + P -X-XS.7.v v v _ J.N.n ) |.S.f g k g g P $.$. .K ] 0.' ' ' ' ' ' ' ' ' ' ' ' 5.5.5.5.H.G ",
"b.0 # + > 1 < @ # @ * * 1 < : : - 1 @ 4 %X*X-X=Xs > > N.*XOX> S.-X%X> 4 k j j k Y U #.o.K ( ] ' ' ' J R ' ' ' ' 5.5.5.9.7.' G.F ",
"v.t - @ # % * < < < 1 1 # 1 } Q.1 o : 5 %X*X=X%XM.S ) J.=XOX> l.-X%XN._ j j j k B U K o.L L R 7.' R R R ' 7.' ] ] ] ' ' R R b.u ",
"v.0 X               : : : : -X-X=     = XXXX*X%XP.$X-X=X&X X$ l.&X$X*XOX& q q q p s 5 f 5 L K R ` R R R T P T J I R T K T T b.0 ",
"b.0 w.1.w.w.1.=.1.,.W Q E } *X*Xt.>.>.9.1X2X%X#X+X#X=X*X2X1Xy.;X&X%X$X,Xe.e.e.e.e.t.u.Q.-.7 K m T R R P P P K P K P T T %.T b.t ",
"v.t jXZXmXmXMXZXVXVX*X&X-X-XXX.XtXJXDXjX8XyX$XXX%X*X&X1XBXVXVXtXXXoXK.,XCXZXVXjXcXvXcXbXwXK 7 L K T T P P P P K K T T T #.%.b.t ",
"v.0 aXfXdXdXpXdXtX>X@XXX*X%X1XOX:X0X0X0X:X:X$X#X1X1XoX@X0XsXpXtX1X1XK.,XlXkX3XeXsXsXsXdXvXe.4 o.K O.K T T R T K T T %.K O.%.b.u ",
"v.t aXfXdXfXhX9XOX&X%X@X#X#XcXVXhXyX7X7X@X&X.X,XCXpXOXP.f.W.9X0XBXkX.XK.j.L.K.,XVXdXsXsXcXwX6 m o.K o.;.;.T ;.%.T K T %.:.:.b.0 ",
"x.t dXdXpXpXeX).OXXXOX[.#X#X>XeXtX>X:X:X$XoX+XP.0X`.P.L.i.V.>X).7X).+XP.j.L.K.[.eXeXsXuXsXvXw.5 L o.o.%.:.;.%.T T T %.T %.%.b.u ",
"v.t aXfXjXyXP.K.K.K.i.i.P.&Xr 9 i.f..X&XK.h.K.K.g.f.f.i.9 i..X+XyX0X9X(.g.h.h.h.g.[.VXsXuXcX0Xf L K o.O.%.;.;.%.:.T %.:.;.5.b.t ",
"F.u iXdXfXpX>X<X4X,X`.W.3X1X!.I.W.W.,X2X,X[.,X[.].].].W.T./.OX4XfXfXpXqX[.}.}.{.].kXfXiXiXdXsXw.7 o.o.o.K @.;.5.;.T ;.;.9.9.b.y ",
"G.G uXdXaXfXhXhXVXhXCXnXVXgXjXbXCXVXVXBXVXVXhXgXhXhXhXhXjXjXgXgXaXpXfXjXhXCXnXnXVXpXsXsXaXrXvX:X7 @.%.K O.%.:.:.;.;.9.;.:.T b.u ",
"G.F uXaXdXdXpXfXdXdXaXaXfXfXdXdXsXfXfXdXpXdXpXdXdXdXdXpXsXaXaXpXaXaXaXaXpXiXpXaXaXdXdXsXrXiXdXiX<.O.@.%.@.K K @.@.:.;.9.;.;.v.0 ",
"G.F uXdXiXiXiXpXdXaXaXdXdXpXdXsXdXdXdXdXdXdXaXaXdXaXaXaXaXaXaXaXaXaXaXaXiXiXiXpXaXiXrXiXaXiXtXjXu.O.<.@.@.@.@.%.,.@.%.%.%.;.v.u ",
"G.F uXiXuXpXsXaXdXaXdXaXaXdXuXdXaXaXaXdXdXaXaXaXuXaXaXaXuXsXaXsXaXaXaXaXuXsXsXiXaXaXrXaXiXiXiXjX0X< O.<.@.+.+.+.@.@.@.%.%.:.b.t ",
"F.u uXpXuXuXuXuXaXdXaXaXaXaXdXaXiXaXaXaXaXaXaXaXaXaXdXaXsXuXaXaXiXuXuXaXuXuXuXiXrXrXaXiXiXiXrXaXaX< . ,.<.<.,.>.@.=.%.=.@.o.v.0 ",
"D.y wXuXuXrXuXuXuXuXuXaXaXpXaXaXaXaXiXaXaXaXaXuXuXaXuXuXuXuXuXuXaXuXaXaXaXaXaXiXaXrXrXuXrXrXrXrXvXu.  . 2 >.1.,.,.@.@.@.@.o.c.r ",
"D.y wXuXrXrXrXrXuXuXuXrXuXuXuXuXuXuXuXiXaXuXuXuXuXuXuXrXuXrXuXuXuXiXaXuXuXuXrXrXrXrXrXrXrXrXrXrXaXrX@   . * 7 <.<.,.,.<.,.=.z.r ",
"D.y wXuXrXuXrXrXrXrXwXuXrXuXrXrXuXuXuXuXuXiXuXrXrXrXuXuXuXuXuXuXuXuXuXuXiXiXrXrXrXrXrXrXiXrXwXeXwXvXw.  X . . 5 >.>.>.<.:.=.V.r ",
"C.y bXmXmXbXmXmXmXvXvXbXvXvXMXvXbXvXbXvXbXvXvXvXbXMXbXvXMXMXMXMXMXMXMXSXSXSXMXMXMXMXMXMXMXMXMXMXMXPXwX  . O . . 2 >.>.<.<.,.V.r ",
"D.y AXDXDXDXGXHXFXDXDXKXKXKXKXHXHXDXFXDXDXDXGXHXKXHXHXFXFXFXFXFXHXLXLXLXLXLXLXLXLXLXPXLXLXLXLXLXLXUXiX  X O O X o | | | | <.V.i ",
"Z.w ZXGXDXGXGXHXGXFXHXDXFXGXFXFXLXLXFXFXHXHXLXLXLXHXHXLXFXFXHXFXHXHXLXLXLXLXLXLXLXLXLXLXHXLXLXHXHXUXwX  o X O O o . 2 | < O.V.e ",
"B.r ZXHXFXFXKXGXFXGXGXFXDXDXDXDXGXKXHXFXKXLXLXLXHXHXGXGXHXHXFXHXHXHXHXHXLXLXLXLXHXLXLXLXLXPXLXLXHXUXrX. + * * O O . o < * | m.r ",
"B.e mXJXDXKXDXDXDXDXHXHXDXDXDXFXFXFXFXHXLXFXHXHXFXGXHXFXFXFXFXHXHXHXLXHXHXLXLXHXLXLXLXLXLXHXHXHXLXUXwX. + * * * # % * = * , Z.t ",
"B.e MXDXDXDXDXDXDXDXDXDXGXDXDXDXGXGXDXFXFXGXGXHXHXFXGXGXFXFXHXHXHXLXLXLXHXHXHXLXLXLXLXLXHXHXHXLXHXUXwX  = * o O - ; J I o . C.y ",
"C.r ZXAXSXDXAXKXGXDXDXFXGXDXDXDXGXDXHXHXFXFXHXHXHXFXDXFXFXFXHXHXLXHXLXLXLXLXHXLXFXFXFXHXLXHXHXHXKXPXrX= ; f - ; f E q.q.- 4 F.u ",
"H.y bXDXAXAXZXAXFXFXFXDXGXGXGXGXDXDXDXDXGXDXDXGXGXGXGXGXHXHXGXHXLXLXLXLXLXHXHXHXFXFXFXFXHXFXFXHXDXPXwX% # - p P P E k ^ ] k F.u ",
"J.y vXAXZXvXmXZXSXSXSXZXMXSXSXSXSXZXZXZXSXSXMXSXSXSXSXSXSXFXGXSXSXMXFXFXFXFXFXFXFXSXSXFXDXDXSXSXZXPX0XO - - = 5 - = * - g - F.0 ",
"F.D.k.s.s.m.a.B.B.B.B.m.B.V.V.V.V.V.v.b.b.v.b.v.v.n.G.H.H.H.H.H.H.H.H.G.n.v.v.v.b.b.v.b.v.b.n.c.V.Z.C.C.Z.C.C.m.k.d.s.k.H.H.F.u ",
"u 0 w q w w r r e r r r r i e i r t 0 t t 0 0 0 0 t F F F F F F F F F u t t t t t t t t u 0 t t r r r r i i A t q w 9 r F F u u "
};
