/* XPM */
static char *_d83f90925004a30989c0cbc77f9e396eVyqofnAd6R6RWkP[] = {
/* columns rows colors chars-per-pixel */
"64 64 251 2 ",
"   c #00141D",
".  c #001A1E",
"X  c #001523",
"o  c #001C24",
"O  c #001D29",
"+  c #001D31",
"@  c #002226",
"#  c #00232B",
"$  c #00292F",
"%  c #002331",
"&  c #002C33",
"*  c #00243B",
"=  c #002C3C",
"-  c #1C2C3A",
";  c #003135",
":  c #00333C",
">  c #003A3E",
",  c #252D39",
"<  c #2A333C",
"1  c #002C43",
"2  c #1B2C40",
"3  c #003344",
"4  c #003C42",
"5  c #003948",
"6  c #1E3448",
"7  c #1C3955",
"8  c #262F42",
"9  c #243445",
"0  c #23354C",
"q  c #2A3648",
"w  c #253A4D",
"e  c #2B3B4D",
"r  c #353B4A",
"t  c #243652",
"y  c #283756",
"u  c #243B54",
"i  c #2B3C53",
"p  c #253C5A",
"a  c #2B3D5B",
"s  c #323D54",
"d  c #353C59",
"f  c #2A3D64",
"g  c #323E63",
"h  c #443F48",
"j  c #004145",
"k  c #27404F",
"l  c #38424D",
"z  c #2C4155",
"x  c #26415C",
"c  c #2C425B",
"v  c #2B485A",
"b  c #334254",
"n  c #32455C",
"m  c #39485A",
"M  c #254567",
"N  c #2C4463",
"B  c #2E4964",
"V  c #2C446A",
"C  c #2D4A6C",
"Z  c #344B63",
"A  c #364966",
"S  c #344C6B",
"D  c #35526A",
"F  c #395569",
"G  c #3B536C",
"H  c #2B4976",
"J  c #334B74",
"K  c #334979",
"L  c #2A5379",
"P  c #3B5472",
"I  c #3D5A73",
"U  c #375679",
"Y  c #45474C",
"T  c #454B5A",
"R  c #435058",
"E  c #454D64",
"W  c #485769",
"Q  c #535A6A",
"!  c #425B74",
"~  c #465A77",
"^  c #555C74",
"/  c #45627B",
"(  c #4B6479",
")  c #526573",
"_  c #576678",
"`  c #646C78",
"'  c #6B737B",
"]  c #777677",
"[  c #7D8377",
"{  c #384C84",
"}  c #2A5784",
"|  c #395687",
" . c #3B5B93",
".. c #3C6A91",
"X. c #2756A0",
"o. c #3D68A3",
"O. c #425986",
"+. c #466587",
"@. c #4B6682",
"#. c #4C6A83",
"$. c #4D6C8B",
"%. c #546B84",
"&. c #586984",
"*. c #536D8B",
"=. c #4D728C",
"-. c #53728E",
";. c #5B7488",
":. c #476998",
">. c #556C9A",
",. c #4C769A",
"<. c #547492",
"1. c #597597",
"2. c #557A95",
"3. c #5A7A94",
"4. c #52749D",
"5. c #547D9A",
"6. c #5A7E9A",
"7. c #677687",
"8. c #737A89",
"9. c #667B94",
"0. c #475FA1",
"q. c #4463A2",
"w. c #4867A6",
"e. c #456AA4",
"r. c #4A6CA6",
"t. c #4B6DA9",
"y. c #526DAA",
"u. c #4D73A4",
"i. c #4E7AA5",
"p. c #4D74AB",
"a. c #4E7AAA",
"s. c #5275A5",
"d. c #5977A5",
"f. c #537AA5",
"g. c #5375AB",
"h. c #5A76AE",
"j. c #547BAB",
"k. c #5A7BAD",
"l. c #506DB1",
"z. c #4C74B1",
"x. c #5677B4",
"c. c #537BB2",
"v. c #5B7CB2",
"b. c #647EA6",
"n. c #617DB6",
"m. c #46809D",
"M. c #5B819A",
"N. c #5C819C",
"B. c #71818F",
"V. c #67839B",
"C. c #758698",
"Z. c #4F81A9",
"A. c #5D84A3",
"S. c #5581AD",
"D. c #5B84AC",
"F. c #5A8AAA",
"G. c #5582B2",
"H. c #5A83B3",
"J. c #5A89B8",
"K. c #5994B7",
"L. c #6184A3",
"P. c #6785A7",
"I. c #638AA5",
"U. c #648CAC",
"Y. c #6A8CAC",
"T. c #758AA5",
"R. c #6591AC",
"E. c #6C93AD",
"W. c #7697AE",
"Q. c #638DB3",
"!. c #638CBB",
"~. c #6A8DB8",
"^. c #6796B7",
"/. c #6B94B4",
"(. c #6493BB",
"). c #6C93BB",
"_. c #6D9ABB",
"`. c #7898B5",
"'. c #7195BA",
"]. c #739CBC",
"[. c #67A0BE",
"{. c #77A1BE",
"}. c #5693CB",
"|. c #6998C6",
" X c #6C9AC4",
".X c #739CC3",
"XX c #769AC5",
"oX c #6D9AD2",
"OX c #6BA3CB",
"+X c #75A2C3",
"@X c #7BA3C4",
"#X c #73A4CC",
"$X c #7BA5CA",
"%X c #76A9CB",
"&X c #7CAACC",
"*X c #6CA6D3",
"=X c #7CAAD3",
"-X c #78A8D6",
";X c #7CB2D6",
":X c #77ABE2",
">X c #7AB6EA",
",X c #8896A3",
"<X c #8696A8",
"1X c #87A7C6",
"2X c #82ADCD",
"3X c #94ABC6",
"4X c #87B2CD",
"5X c #82ADD3",
"6X c #84ADDA",
"7X c #84B2D3",
"8X c #8CBAD3",
"9X c #84B5DA",
"0X c #89B7D8",
"qX c #8CBBDC",
"wX c #94BDD5",
"eX c #93BADA",
"rX c #88B8E5",
"tX c #94BEE5",
"yX c #83B7F3",
"uX c #8CC0DC",
"iX c #93C2DC",
"pX c #99C4DA",
"aX c #9BC4DD",
"sX c #A2C2DC",
"dX c #8CC3E8",
"fX c #94C3E2",
"gX c #9CC5E2",
"hX c #9CCAE3",
"jX c #96C7EA",
"kX c #8FC5F3",
"lX c #97C7F6",
"zX c #9CD2F7",
"xX c #A3CBE5",
"cX c #A4CDEA",
"vX c #A8CBE8",
"bX c #A9D1E8",
"nX c #ACD2EB",
"mX c #B7D5EB",
"MX c #B4D5EC",
"NX c #B6DAED",
"BX c #BBDBEE",
"VX c #ABCEF3",
"CX c #A8D6F8",
"ZX c #B3D6F2",
"AX c #B4D9F2",
"SX c #BBDCF1",
"DX c #B6DAFA",
"FX c #BDE3FA",
"GX c #C2DEF1",
"HX c #C5E5F7",
"JX c #CEE6F4",
/* pixels */
"3 3 5 3 3 5 5 5 j j j 4 > > > ; : = = & = & & & & % % O % + + + + + % & & & ; ; & & & & & % # % & $ $ ; ; ; ; ; ; ; = : : 3 1 3 ",
"3 O O + O X O # # # # @ @ @ . o o o o X o o . X X                       X   . . . . . .           . . . . . . @ . o . o o o 3 o ",
"1 O #X6X6X6X6XqXrXtXfXfXiXhXxXaXaXeXqXuXqXqX9X;X=X#X#X#X|.!.J.J.H.}.c.G.G.S.S.S.S.S.c.G.H.H.v.G.S.i.f.f.d.S.j.j.F.H.j.a.S.a.3 O ",
"1 X 2X=X2X5X5X6X0XqXfXiXiXpXpXpXeX8X7X4X{.].).Q.U.U.U.Q.Q.U.D.J.H.G.S.H.G.S.j.S.S.c.J.G.H.H.H.H.G.D.j.k.j.S.d.f.D.S.j.j.i.f.3 O ",
"= X &X5X5X6X2X2X8XqXiXwXwX0X0X1X{./.I.M.-.-.-.2.6.3.M.N.N.I.A.D.S.S.H.H.G.S.Z.S.G.G.c.G.G.G.G.S.S.S.j.j.v.j.4.4.,.S.i.S.j.s.> @ ",
"& . 5X2X2X1X7X5X7X7X4X4X0X$X^.V.M.;.( %.%.#.=.5.N.N.V.R.R.W.W.W./.U.U.k.H.H.G.G.G.G.G.G.G.G.G.G.S.j.d.j.f.,.,.4.f.i.Z.f.j.s.4 @ ",
"$ . @X@XXXXX4X7X2XXX@X7X{.V.3.%.-.( / =.=.2.2.6.I.V.F.E.E.W.`.1X{.1X].U.D.G.Z.G.G.G.G.G.J.G.G.j.k.D.h.k.f.,.4.4.4.f.f.j.Z.a.4 # ",
"$ . ].'.'.`.1XXX.X.X@XE.=.%.*.#./ / =.=.2.M.5.5.5.A.R.].{./.`.{.{.2X2X@X'.Q.F.Z.G.J.G.G.G.G.S.j.H.H.k.k.d.s.4.4.4.f.4.f.S.j.j @ ",
"& . XX~./.'.XX'.].].Y.#.! ! / / +.=.-.5.M.M.A.A.A.I.Y.].{.{.{.{.2X4X8X4X2X@X].~.P.c.G.G.G.G.G.j.G.j.j.f.f.s.s.r.i.j.f.i.f.f.j @ ",
"; X ~.~./.'.).]./.Y.;.! I ! ( $.=.<.6.M.A.A.U.U./.'.].].@X@X2X2X4X4X8X8XuXuX8XXX~.H.c.G.G.c.c.S.j.k.j.f.f.f.s.u.4.4.d.j.a.i.j @ ",
": . ~. X).).^.).~.-.W I I I / =.=.6.N.5.A.F./.'.].{.+X@X@X7X8X8X8XwXuX8XiXhXpXuX&X~.G.G.c.j.v.v.k.k.S.i.d.j.j.s.i.4.d.j.a.i.j @ ",
"; . ).~.).).~.Y.b.F F F F I #.*.<.6.6.N.U.R.'.`.{.{.@X+X&X4X4X8XwXpXpXpXiXpXhXhXpX2X}.}.H.c.j.j.k.D.j.j.s.d.s.s.g.s.a.j.a.f.j @ ",
"& . ).'.~.~.~.P.! A ! D I / $.=.<.M.L.I.U.R._..X].+X%X&X;X4X4X8XpXpXsXhXpXpXsXxXxXhX=XJ.H.c.v.k.k.k.j.j.s.k.s.j.f.s.u.u.i.u.> @ ",
"& .  XXX X'.'.<.Z m F P / $.<.=.1.N.L.E.Y._.].+X+X%X2X9X9X;X7X8XwXpXhXbXxXpXpXbXvXvXxX XG.x.v.h.s.v.j.j.g.s.k.s.s.s.u.i.i.=.4 @ ",
"&   ).~. X|.R.( z Z D I +.<.=.=.N.I.I.E._.].{.{.+X&X&X7X9X0X0X8XwXsXsXbXbXxXbXbXbXnXNXeX}.x.x.j.j.j.j.f.u.j.j.i.j.u.u.i.i.+.4 @ ",
"= X |.~.).(.J.A q F G P $.-.=.2.N.L.U.E./.].].{.&X7X;X7X7X8XuXqXwXpXhXbXbXmXmXmXnXMXNXCX Xp.c.x.k.d.j.j.d.j.a.j.u.i.a.j.=.+.4 @ ",
": o  X X!.Q.>.u b G F / $.<.<.2.N.A.U.).].]._.{.&X7X&X0X0XuXiXfXaXaXxXbXbXMXMXmXmXMXnXAXtXH.c.v.d.f.d.f.j.u.j.p.a.j.f.,.+.I 5 o ",
"3 O |.|.|.!.! 6 n G I / $.=.=.1.N.L.U.)._.]._.+X&X&X7X;X0XqXiXaXhXaXhXbXbXbXMXMXNXBXMXAXnXoXc.v.b.n.s.f.s.j.g.j.G.:.+.+.I U 3 O ",
"3 O |.|.oXJ.B 9 m G I +.$.<.-.5.6.L.Y./._./.].{.@X&X7X9X9XdXiXaXhXxXbXnXmXBXBXMXmXAXZXNXNXeXa.j.~.Q.j.s.u.j.i.f.:.+.U U U D 3 O ",
"3 O #XoXoXH.u 0 A F ! / $.=.-.1.6.L.Y././._.]._.+X=X;XqXuXuXhXhXxXvXbXNXBXBXBXMXMXAXAXSXGXtXG.a.H.H.g.g.g.f.,.$.~ I U U U P 3 O ",
"3 O OX|.|.i.0 i Z F / @.$.$.*.3.5.M.I.R./.^.{._..X%X;X0XqXuXiXgXvXnXZXAXNXmXmXBXNXZXAXAXBXhXj.a.v.H.g.v.k.,.,.~ ! F P G U G 3 O ",
"3 O *X|.OX..8 s A A ! @.$.$.*.1.5.M.L.R.R.^._._.].%X=X0XuXiXiXaXvXnXZXMXmXGXBXBXSXAXZXNXHXxXH.g.v.v.g.v.j.i.:.O.D D G A G Z 1 o ",
"1 o =X-X*X:.- b A m I @.+.$.$.<.5.N.N.R.^.^.^.[.+X%X;XqXfXiXiXaXvXnXMXZXBXFXNXNXAXSXAXNXHXsXH.z.v.k.k.k.Z.i.+.I Z D P P v z 1 o ",
"= X 5X=X-X..- s m A ! / +.$.$.<.2.L.F.R.^.^.^.^.(.[.+X8XfXiXiXhXvXVXmXSXSXBXSXNXNXSXSXMXGXeXc.x.v.v.j.S.S.:.U D D G F G c z 1 o ",
"* X 7X=X:X:.- s A E ! ! #.=.-.<.6.I.R.R.^.R.Q.!.K.K._.;XiXiXiXcXnXMXmXNXGXGXBXGXGXGXBXZXSXeXj.x.v.v.j.j.<.| C F ! ! F m v k = o ",
"* X 6X6X-X4.- e n A G / +.$.<.1.6.N.R.^.^.R.J.F.F.F.K.OX8XqXfXcXnXMXNXBXGXGXJXJXHXBXBXBXmXxXH.l.v.k.G.a.+.P C ! ~ P A v k u 1 X ",
"+ X 6X5X-Xs.6 q m Z G / @.*.*.-.2.F.R.^.^._.^.F.Z.M.F.).;XdXhXaXbXZXSXBXNXmXBXBXBXSXZXZXZXvX~.t.h.v.J.:.I Z A ~ ! U A Z B i * X ",
"+ X 2XXX#XS.9 8 n v W ! %.-.3.3.M.R._.+X].].+X.XV.W %.^.%XiXiXhXbXvXaXsXpXpXxXBXMXCXDXZXVXnXXXt.c.k.+.P S S G ! ! D Z Z A i 1 X ",
"1 X XXXXoXv.k , e Z F ! %.;.3.6.N.R..X+X+X+X&X`.) l F P.2X8XfXfXW.7.Q Q W W.aXnXZXDXeX7.C.xXrXG.p.U Z G G G A G ! Z z n n z * X ",
"+ X XX|.|.!.J - r A ! ! @.3.2.2.N.U.].+X%X%X].9.Q l s A.;XqX1X;.R Y Y r l _ uXhXHXeXQ Y m 1XyX}.| N u c Z G Z n n b k k z z * X ",
"* X !.~.!.!.:.2 < b ! / ~ $.N.5.,.A./.+X&X{.I.V._ Y l N.;X=X9.Q ` ;.<.,.i.G.*XCXHX'.P.W.!.:Xz.} C B p t i Z m v z e 9 e k q * X ",
"1 X !.!.!.H.j.a , e m ! / / ;.R.D.A.I.{.].I.L.P.;.R m U.rXfX1X].2X%XK.K.K.K.-XDXGXqX9XoXyXj.7 M P Z 7 c G N n b v 9 9 q e w * X ",
"1 X J.Q.Q.H.c.K - 9 n W / / / 1.(._.P.Y.Y.V.P.T.B.W ! {.vXmX7X;X=X+X|.H.N.H.-XDXJXhX*XOXvX! M J U S p Z B u u i e 9 9 9 e z * X ",
"1 O !.H.x.H.c. .6 < b F ( ( W G A.;X1.%.9.V.9.C.C.^ 2.uXJXNX&X%XOX%X XD.*.Q.>XbXJXcX*X>X3Xa M D U B N c c x c Z i 0 z q w b * X ",
"1 + J.v.j.S.j.:.z , r A ( W E R F 5X+X*.9.9._ 7.' ) K.iXJXcX;X=X&X XF.4.4.=X9XjXHXvX-XyX1Xp C Z Z B a c v A v z z 0 q w 9 w * X ",
"1 + H.H.j.f.u.:.U 2 q m ( _ ;.` T W ].E.C.9.&.` ^ ~  XuXAXtX*X*X XK.o.K.dXrX*XzXFXzXoXyX@XN B B B B C N Z c i i w w w w 0 w = o ",
"1 O v.H.j.u.u.e.:.u , d ~ ;.V.C.7.Y r W ~ 9.T.T.&.<.#X9XjXzX*X}.}.}.:XzXlX;XlXrX1XxXkXjXhX! 7 B Z D D D B c z i w z 9 6 6 6 = o ",
"3 + H.c.j.p.a.z.z.} - q W &.9.,X8.E < R R ^ `.{.+X XQ.OX;XdXkX>X>X>XzXkX-XdXE.V.' C.HXDXVX| 7 C S B F I D c z i z z 6 6 7 w = o ",
"3 O c.j.a.p.p.z.o.o.C - E *.b.<X9.m q W 7.R _ {.%X*X(.(.*XrXdXdXyXjXrX*XrXE.R <X^ 3XFXCX9XM M D B C P D n v v m z w u i v w 3 o ",
"3 o c.j.u.p.u.t.t.e. .y e ^ ,X<Xb.( r R 7.` m V.%XK.*XOX=X;XOX|.Q.F.|.:X&Xl ] <X9.CXyXtX..p B B D D Z v v m z n z i z k x w 3 @ ",
"3 O c.c.p.u.u.r.w.w.q.| 7 B ,Xb.w.+.r E _ B._ m V..X|.OX9X%X^.&X/.F.OXrXP.h 8.T.3XjXtXQ.7 M v B A v v z e q i v z 9 6 u k w 3 @ ",
"3 o c.z.p.p.r.r.w.t.t.o. .K 7.d.l.+.9 m _ ;.;.Q W 1.J. X6XjX8X4X1X.X&XlX3XT 8.<XeXsX,.y x B c Z A s e 0 q w v B 6 6 0 z p u 3 o ",
": o c.x.p.p.r.r.t.w.q.q.l.y.:.:.y.~ q l ^ %.#.) _ 7.;.-.-.;.W.wX/._.9XdXAXT.P.0X3X@.0 y a x D A m i 9 < i z v u t 0 7 x N a 3 O ",
": o a.c.c.u.u.t.q.o.q.w.0.w.w.l.O.l r r ) %.@.@.9.,X_ Y r l ` 1XU.+X9X7XxXVXkXCXT.2 g d c Z Z n e q 9 w c Z u e w w u u u 0 3 O ",
"= o j.z.x.p.p.p.e.e.q.q.0.q.w.t.y.E q s Q 9.U./.7X3X_ T T E _ `.Q.@XqXqXfXzXCXJX3Xy a i Z S n e q e i u x A v 9 t k x 7 6 0 3 O ",
"= o a.z.x.c.u.r.t.e.0.0.0.w.r.g.$.T r T W V.]..XqXsX9.A Q Q Q 9./.].7XfXqXuXcXMXsXJ 7 a N Z b i b n k t z v i 0 u t t t u u 3 O ",
": o a.p.p.a.p.p.t.t.q.0.0.w.w.t.~ r r l W 9.R.+X$XeXT.E _ ^ ^ _ ;.M.{.5X0X&XiXbXwXJ M g n i q e b n x x z u 0 t w 0 7 k u w 5 O ",
"= o a.p.c.j.z.z.z.w.e.:.q.e.q.l.>.W e m W 3./..X XjX1X&.9.@.&.W %.*.A.|. X_.gXVXY.V C a s q e b i z c N p 9 i a y u x x x i 3 O ",
": o c.g.g.k.j.z.t.t.q.q.w.q.e.u.@.^ d s T &.Y.Q.Q.7XcXQ.f.L.1.&.;.1._.%X%X=XqXiXR.J M z s e z n z B N a 6 t t t t t p p t t 3 @ ",
": o x.g.g.g.z.g.p.e.t.t.t.l.0.$.1.*.G d E ) 6.U.F.^.cXjXa.+.Y.b.9.d.U.%XdXrX;XuX(.K a a i a n v Z S A t t u t k t 6 6 t y t > @ ",
"3 o j.j.s.g.x.x.p.p.t.t.r.e.$.~ E Q 8.~ m @.>.f.,.Z.=XhX2Xv.| *.Y.).A.&XCXjXjXlXu.C A c Z N Z A S V a a a a p N p t 6 e e 8 > o ",
"> o j.j.g.j.x.x.y.y.t.t.r.e.s.n.~ E 8.C.W ~ ( =.2.i.Q.9XeX-XQ.1.3.N.K.%XhX4XdXlX| C V Z B N N N a a u x a a x M x u u i 0 0 > @ ",
"> o j.c.c.g.g.h.g.y.g.r.z.y.1.~.}.*.&.@.Q ) ^ @.=.m.Z.^.5X6X#XXXQ.!.-XtXcXhXzX*X} C J Z c N N f N a i y y x p N c u i u u t 4 @ ",
"> o j.j.p.g.g.h.g.t.g.x.z.u.E T 1.'.l.V r ) ' ' / ..m.K. X.X-XrX-XoX:X6X9XlXdXo.J J S N x N N a a a y i p N c i w w c p p t 4 O ",
": o j.p.g.j.g.g.g.g.x.l.h.t.O.y E 8.L./ E ! _ [ B.....Z.)._.J.*X6X6X=X9X%XkX+XK K C C x a a y 0 t i y u M C s e i d a p 7 7 4 o ",
": o k.x.c.v.c.j.h.v.h.h.+.>.x.X.P 8.^ W _ _ _ ' B.7.$.,.S.+X|.J.oXrXjXlXVXDX#XK V S a u t t 8 0 0 y a a N c d d A N 7 7 M N 5 @ ",
"; @ k.k.x.j.j.g.h.v.h.h.>.~ &.w.w.g.| d W _ 7.' ] ,X&.{ ..F.#X.X#XrXkXVXHXDX|.f J g p u t 0 t a d y y g a i g A N N 7 7 f C > o ",
"> o j.k.h.k.k.h.h.v.h.x.n.l.O.^ b.9.e.n r _ ' ` ] [ &.{ | :.H._.%X>XkXVXDXlX .f J V M a a t y N N d a f g V C x t u y f M J 3 @ ",
"; o j.k.v.k.g.g.n.n.h.h.h.h.l.A Q ' ^ T R ^ ` ` ] 7.O.O.{ } +.F. XOXrXzXrXc.M f A N N N f f g V a a g g J J M x p t f M L L > @ ",
"> @ h.h.s.h.g.j.n.n.P.d.b.y.w.:.:.~ l T ) _ 7.8.8.b.O.K { O.| | $.d.d.k. .H { } M g g 0 p J V a V f f H H C N M p t p 7 M C > o ",
"3 @ v.h.h.h.x.v.x.g.4.$.>.3.$.>.>.J s Y W _ 7.] ] B.b.q.O.{ { { { { K { { | | K N a y V C V V H K H H L L M y y 7 t t u 7 7 3 o ",
"3 o v.h.x.v.v.g.j.K.(.R.$.$.3.;.) ) l < l E _ 7.' 7. X:XoX}.w. . .0. .{ { K J H V C J K J C J J K } L H V N p 6 u k x c 7 u 3 o ",
"3 5 4 j 5 5 5 5 j j j j > > : : = = = = = & & & & % % % + + + + + + + % & ; & & & & & & % % # # $ $ & & ; ; ; ; ; : = : : 1 3 o ",
"O @ @ @ @ @ # # # # @ @ . @ o o o o X . o o o                           . . . . . . . . .       .   . o . . @ . . . o o o o O o "
};
