/* XPM */
static char *_0a22ac15daf4dbbfc69c3631a863039bGQN8kRkqKwjM8bT[] = {
/* columns rows colors chars-per-pixel */
"32 32 210 2 ",
"   c #241007",
".  c #251208",
"X  c #2A1509",
"o  c #2A1A09",
"O  c #411E0D",
"+  c #4C2800",
"@  c #46250E",
"#  c #4B250E",
"$  c #4B2B0E",
"%  c #522E00",
"&  c #4D3306",
"*  c #4B300F",
"=  c #533502",
"-  c #5D3D07",
";  c #462310",
":  c #492412",
">  c #4A2A11",
",  c #443515",
"<  c #4A3411",
"1  c #59430A",
"2  c #624507",
"3  c #6B4600",
"4  c #6D4B03",
"5  c #6C4B0B",
"6  c #714D02",
"7  c #714D0D",
"8  c #7D5A06",
"9  c #75530C",
"0  c #7A520C",
"q  c #724D10",
"w  c #6E5012",
"e  c #59472A",
"r  c #5A4E33",
"t  c #775C2D",
"y  c #695A3B",
"u  c #79633E",
"i  c #6A5B45",
"p  c #6F6041",
"a  c #796747",
"s  c #865400",
"d  c #885000",
"f  c #845D0C",
"g  c #896E02",
"h  c #8D650B",
"j  c #936A09",
"k  c #8D720E",
"l  c #9E7C03",
"z  c #9B7209",
"x  c #8E6610",
"c  c #A66E00",
"v  c #A47806",
"b  c #A37B0D",
"n  c #AB7C0D",
"m  c #B4760A",
"M  c #A67711",
"N  c #A37B14",
"B  c #A67916",
"V  c #886E44",
"C  c #8C7046",
"Z  c #937645",
"A  c #9E7E42",
"S  c #8A7456",
"D  c #8D765B",
"F  c #907456",
"G  c #917A5E",
"H  c #8D7666",
"J  c #8F796D",
"K  c #947C62",
"L  c #927A6D",
"P  c #957D73",
"I  c #9B8204",
"U  c #9B8319",
"Y  c #A3850B",
"T  c #B2840C",
"R  c #B68909",
"E  c #B89507",
"W  c #AC8514",
"Q  c #A98518",
"!  c #B38A15",
"~  c #B98C17",
"^  c #BD9317",
"/  c #B99C17",
"(  c #B79118",
")  c #BD931A",
"_  c #BAA11D",
"`  c #9C823E",
"'  c #BA8D28",
"]  c #C4890F",
"[  c #D68E0A",
"{  c #C69806",
"}  c #C3950C",
"|  c #DA9407",
" . c #C19515",
".. c #C49916",
"X. c #C29519",
"o. c #C59A1A",
"O. c #C99D1B",
"+. c #D09F19",
"@. c #E69701",
"#. c #CDA702",
"$. c #D5A800",
"%. c #CCA11D",
"&. c #DBB016",
"*. c #E6BA0C",
"=. c #C59923",
"-. c #CA9D22",
";. c #C19529",
":. c #D39F24",
">. c #CDA223",
",. c #D1A423",
"<. c #D2A42B",
"1. c #D5A92D",
"2. c #D8A929",
"3. c #D7B826",
"4. c #CFA734",
"5. c #CFA93A",
"6. c #D4A532",
"7. c #D4AA34",
"8. c #D9AC35",
"9. c #D6AD3B",
"0. c #D8AD3C",
"q. c #DBB13D",
"w. c #E0B237",
"e. c #E0B03A",
"r. c #DEC02E",
"t. c #E3C232",
"y. c #988043",
"u. c #9D885A",
"i. c #A98A45",
"p. c #AB8B4C",
"a. c #A98C53",
"s. c #AE9456",
"d. c #9E8661",
"f. c #9A826B",
"g. c #9A8373",
"h. c #998475",
"j. c #AB9A7A",
"k. c #B8A272",
"l. c #C0AE46",
"z. c #D7AF44",
"x. c #C9B745",
"c. c #DBB243",
"v. c #D9BE45",
"b. c #DCB44B",
"n. c #DBB652",
"m. c #DDBA5A",
"M. c #E2BD59",
"N. c #DFBD63",
"B. c #C3AC7C",
"V. c #DFC46B",
"C. c #DDC47F",
"Z. c #E5C56A",
"A. c #E2C67A",
"S. c #AC9A8C",
"D. c #B6A894",
"F. c #B5AB97",
"G. c #B6AC99",
"H. c #BAAE9B",
"J. c #BDB19C",
"K. c #BDB4A2",
"L. c #BFB8A6",
"P. c #C7B285",
"I. c #D3BD88",
"U. c #C1B49D",
"Y. c #C2B5A3",
"T. c #C5BAA6",
"R. c #C8BAA3",
"E. c #C5BCAB",
"W. c #CBBEAC",
"Q. c #C6BEB0",
"!. c #DCC78A",
"~. c #D9C495",
"^. c #DAC597",
"/. c #E4CC84",
"(. c #E4CA88",
"). c #E5CD8C",
"_. c #E8D181",
"`. c #E3CD94",
"'. c #E5CF9C",
"]. c #E8D198",
"[. c #CEC1AD",
"{. c #DCCDA6",
"}. c #D2C4AB",
"|. c #CBC2B3",
" X c #CAC4BA",
".X c #D1C6B5",
"XX c #D5CAB6",
"oX c #DACBB7",
"OX c #D5CBBB",
"+X c #D9CDBB",
"@X c #DDD1B8",
"#X c #E2CFA2",
"$X c #E7D2A5",
"%X c #E0D0B3",
"&X c #CFCBC3",
"*X c #D4CEC3",
"=X c #D7D1C7",
"-X c #DAD1C4",
";X c #DCD4CB",
":X c #DED6CD",
">X c #DBD5D3",
",X c #DDD9D4",
"<X c #DBD6DB",
"1X c #DEDADC",
"2X c #E2DCD5",
"3X c #E4E1DB",
"4X c #DAD8E4",
"5X c #E6E5E2",
"6X c #E9E7E8",
"7X c #F4F6F4",
/* pixels */
"$ < > : ; : : : @ > > $ * < , < < < $ $ # $ # # : > > : O ; > < ",
"$ o X . X X     X   o o o o o o o o o X X X o o X X X X   X * o ",
"$ X E.G.D J A M N Q Q N N N N Q Q Q ' ' ' ;.6.6.<.I.1X:XXX}.# X ",
"O . |.F.D H A R ! ! Q W W W ( / Q ) =.-.;.;.6.6.:.I.1X>XXXW.@ . ",
"O . E.F.S H y.~ ~ ( ( ) ^ T ! X.X.' -.,.2.<.:.<.2.~.<X2XXX}.O   ",
"O . |.H.D J i.} ^ ^ ^ ^ ^ ! T W ] O.+.e.c.0.8.8.2.I.<X:XoXXXO   ",
"O X |.U.D J i.} ^ ^ / ^ ..o...o.o.+.<.z.b.c.z.c.e.I.<X:XoXXX@   ",
": X .XH.D J p...X. . ...o...%.2.2.7.9.0.0.c.z.b.e.~.>X:X-XXX: X ",
"> o [.H.K L a... .o...O.%.o.%.>.4.7.8.9.0.c.b.b.e.~.<X;X-XoX@ X ",
"> o E.H.K P p.{ ..O.O.-.%.>.>.4.4.7.8.9.c.c.n.n.c.^.2X;XOXoX$ o ",
"$ X E.H.K P i.{ O.o.O.%.%.%.>.<.1.1.7.7.q.c.n.b.e.~.2X;X+XoX$ X ",
"# X E.H.d.g.i.{ o.-.>.%.<.q.q.q.0.8.8.8.8.c.b.M.Z.$X<X;X-XoX# X ",
"$ X [.F.d.L s.8.5.5.x.z.m.N.N.V.V.N.Z.Z.M.M.Z.`.].%X;X:X-X+X# X ",
"> X U.H.K H k.M.n.m.m.V.A.A./.!./.).].`.).).].].$X@X=X;X+X+X$ X ",
"< o }.F.K D k./.!.!.`.`.(././.'.A.A.V./.`.).!.].#XoX=X=XOX@X< o ",
"< o L.F.K L s.x.l.x.9.r.r.3.3.v._ E #.&.3._ _ 3.t.{.>X;XOX+X, o ",
"< o E.H.u.h.` I I I E *.*.$.$.{ I E #.E #.{ Y { *.!.4X:XOXXX> o ",
"< X [.H.K g.y.g k k U Y ^ ] ^ ! E { E R [ | R ] @.A.4X;XXXOX* o ",
"$ o [.F.K P ` v N Y E ] T N B B ] m m [ @.[ | @.@.!.,X-XXXXX* o ",
"$ o E.F.H h.A z j z l T T n b N x f h b M M M m m B.1X-X|.XX$ o ",
"$ o E.F.G h.Z 6 2 1 9 h b b j 8 3 w w 4 5 7 q 0 s B.,X*XXX.X$ o ",
"$ o E.F.K h.Z 8 9 9 h h h 9 & = 2 e i t 4 5 f 0 s B.,X+X|.XX$ o ",
"$ o T.G.d.f.V 4 8 f 9 5 - = = e r e y i w 7 j M c P.>X*X|.[.# o ",
"$ X L.G.G f.V = 3 2 + = % + = p a i i e = = 3 s d B.1X*X.X}.# o ",
"# X L.F.H K d.C V V d.j.j.P.S , u a y t C d.u.u.a.R.>X-X|.W.# X ",
"O X K.F.G S f.S.L.*X3X6X6X7X Xa S a h.[.3X6X5X5X5X>XOX*X|.W.# X ",
"# X Y.D.f.F.E.*X>X>X=X&X=X*X,X2X+X*X,X3X:X;X;X>X,X,X,X=XW.W.O X ",
": X H.D.H. X XE.L.|.|.[.L.E.T.|.|.|.|.T.T.T.W.E.|. X XQ.R.W.# X ",
"> X H.H.K.F.F.H.J.J.J.J.U.U.U.J.H.J.J.J.F.H.H.H.U.H.H.Y.R.W.: X ",
"> X F.H.H.H.H.F.H.J.J.T.[.U.J.J.J.J.G.J.H.Y.U.K.J.Y.Y.Y.Y.Y.> X ",
"> < : : : : : ; @ @ $ $ & < , < * > < $ $ $ > > : > : : O > > o ",
"o o X X . X   X   o o o o o o o o o o o X o X X X X X X X X o o "
};
