/* XPM */
static char *f2e50f4ca1d144a9de9443f59ce6b3799oZimMn0VbbWQmXr[] = {
/* columns rows colors chars-per-pixel */
"64 64 228 2 ",
"   c #180C08",
".  c #181408",
"X  c #081818",
"o  c #101010",
"O  c #101C18",
"+  c #290400",
"@  c #290808",
"#  c #310400",
"$  c #310C08",
"%  c #390808",
"&  c #201008",
"*  c #291408",
"=  c #201808",
"-  c #291808",
";  c #311C00",
":  c #391408",
">  c #391C08",
",  c #291C10",
"<  c #311810",
"1  c #311C18",
"2  c #082800",
"3  c #102400",
"4  c #182000",
"5  c #102800",
"6  c #182800",
"7  c #103000",
"8  c #103C00",
"9  c #183008",
"0  c #183808",
"q  c #202000",
"w  c #202800",
"e  c #292800",
"r  c #202408",
"t  c #292408",
"y  c #312408",
"u  c #392008",
"i  c #392808",
"p  c #203400",
"a  c #293000",
"s  c #203C00",
"d  c #293008",
"f  c #293C08",
"g  c #313000",
"h  c #292018",
"j  c #312810",
"k  c #392C10",
"l  c #312418",
"z  c #392418",
"x  c #312C18",
"c  c #392818",
"v  c #293C10",
"b  c #313018",
"n  c #393018",
"m  c #201C20",
"M  c #102020",
"N  c #182020",
"B  c #182829",
"V  c #183031",
"C  c #183831",
"Z  c #202420",
"A  c #202820",
"S  c #202429",
"D  c #202829",
"F  c #312820",
"G  c #392C20",
"H  c #312429",
"J  c #312829",
"K  c #392829",
"L  c #293029",
"P  c #292C31",
"I  c #293031",
"U  c #313031",
"Y  c #313439",
"T  c #313839",
"R  c #393839",
"E  c #4A0C08",
"W  c #411808",
"Q  c #4A1010",
"!  c #4A1810",
"~  c #521010",
"^  c #5A1410",
"/  c #521818",
"(  c #5A1C18",
")  c #621410",
"_  c #621C18",
"`  c #412008",
"'  c #4A2418",
"]  c #522018",
"[  c #413018",
"{  c #412829",
"}  c #4A2829",
"|  c #413420",
" . c #4A3020",
".. c #413029",
"X. c #413829",
"o. c #4A3C29",
"O. c #523C29",
"+. c #413431",
"@. c #4A3C31",
"#. c #413C39",
"$. c #4A3839",
"%. c #523431",
"&. c #5A3431",
"*. c #622420",
"=. c #6A2020",
"-. c #622829",
";. c #6A2829",
":. c #732420",
">. c #7B2829",
",. c #6A3029",
"<. c #6A3C31",
"1. c #733431",
"2. c #7B3431",
"3. c #104000",
"4. c #184000",
"5. c #204408",
"6. c #294408",
"7. c #204808",
"8. c #294808",
"9. c #205008",
"0. c #295508",
"q. c #295D08",
"w. c #315508",
"e. c #395508",
"r. c #294810",
"t. c #295010",
"y. c #315010",
"u. c #315910",
"i. c #395D10",
"p. c #316108",
"a. c #396908",
"s. c #396510",
"d. c #396D10",
"f. c #396118",
"g. c #396918",
"h. c #395020",
"j. c #204039",
"k. c #394039",
"l. c #4A5508",
"z. c #525D08",
"x. c #5A5D08",
"c. c #4A4410",
"v. c #416510",
"b. c #4A6918",
"n. c #526910",
"m. c #5A6910",
"M. c #417510",
"N. c #527110",
"B. c #6A6908",
"V. c #6A7108",
"C. c #627D08",
"Z. c #524431",
"A. c #5A4431",
"S. c #524439",
"D. c #5A4C39",
"F. c #624839",
"G. c #6A4C39",
"H. c #625039",
"J. c #417120",
"K. c #294841",
"L. c #314C4A",
"P. c #31504A",
"I. c #395552",
"U. c #395D5A",
"Y. c #414441",
"T. c #41484A",
"R. c #4A4C4A",
"E. c #524841",
"W. c #524C4A",
"Q. c #5A4C4A",
"!. c #415052",
"~. c #525052",
"^. c #525952",
"/. c #525D5A",
"(. c #5A595A",
"). c #624441",
"_. c #625041",
"`. c #6A5041",
"'. c #6A504A",
"]. c #6A594A",
"[. c #735D4A",
"{. c #6A5952",
"}. c #735D52",
"|. c #7B6152",
" X c #73655A",
".X c #7B655A",
"XX c #7B6D5A",
"oX c #526162",
"OX c #5A6562",
"+X c #5A696A",
"@X c #626162",
"#X c #626962",
"$X c #626D6A",
"%X c #6A696A",
"&X c #7B6D62",
"*X c #6A7173",
"=X c #833431",
"-X c #833839",
";X c #8B3C39",
":X c #837908",
">X c #8B7D08",
",X c #944041",
"<X c #83655A",
"1X c #836D62",
"2X c #8B7562",
"3X c #83756A",
"4X c #8B796A",
"5X c #947D6A",
"6X c #8B7D73",
"7X c #947973",
"8X c #9C7D73",
"9X c #738110",
"0X c #5A8520",
"qX c #8B8510",
"wX c #948110",
"eX c #948910",
"rX c #A49510",
"tX c #AC9D10",
"yX c #948173",
"uX c #9C857B",
"iX c #9C897B",
"pX c #8B8D8B",
"aX c #9C9D9C",
"sX c #A48D83",
"dX c #B4B2B4",
"fX c #BDB6B4",
"gX c #BDBEBD",
"hX c #C5C6C5",
/* pixels */
"C C C K.P.P.P.I.U.I.P.P.P.K.C C C C C K.P.P.P.P.P.I.U.I.P.P.P.P.P.K.C V V V V j.P.P.P.K.C K.P.P.P.P.P.K.C C C C C K.P.K.C V V V ",
"C M M B B B B V V V B B B B M M M M M B B B B B B V V V B B B B B B M O X X X M B B B B M B B B B B B B M M M M M B B B M O V X ",
"C M *.*.=.;.>.=X=X=X=X=X2.2.=X=X2.>.>.>.>.=./ / Q $ $ $ % % % % $ $ @ @ $ % $ $ $ % % $ @ $ @ @ @ $ @ $ % $ $ @ @ $ @ @ $ $ V O ",
"C M *.*.;.>.2.=X=X=X=X;X=X2.2.>.>.2.>.2.>.=./ / / Q % % Q Q % $ @ @ @ $ $ $ % % % % % $ @ @ $ $ $ $ @ $ $ $ @ + @ @ @ @ $ $ C M ",
"K.B >.>.>.>.>.2.2.2.-X;X;X=X2.>.2.>.>.2.=X;./ / / Q Q / ( *./ % $ $ $ $ $ % % % % % % $ @ @ $ % $ $ $ $ $ $ + + @ @ @ @ $ $ K.B ",
"P.B =.;.;.>.>.>.2.=X;X;X;X=X2.>.1.>.-.>.2.;.*./ ! ! / ( _ *.*.Q $ $ $ % % % Q Q % % % $ @ @ $ $ W.@X!.% % % @ + @ @ $ @ $ $ P.B ",
"P.B ;.;.;.>.>.>.=X-X,X,X;X=X2.2.2.1.1.2.2.*.*.! Q Q *.*._ =._ Q % % % Q % Q % Q % % % % % { ~.*X%X$X@X$X% % $ @ @ @ $ @ @ @ I.V ",
"P.B ;.;.;.>.;.=X-X;X;X;X=X2.>.>.2.2.-X1.2.*.=.;.>.>.>.=._ _ ( ~ Q % ~ Q % Q Q Q ! ! Y.OX%X%X%X$X%X%X$X%XOX% $ + @ + @ $ @ @ U.V ",
"P.B ;.;.>.;.2.=X>.=X;X-X=X>.>.2.2.-X-X>.:.:.>.=X2.>.:._ _ ( ~ ~ / / ( / ~ ~ / / ! T ~.@X$X%X%X%X$X%X%X/.@XT Q % @ @ @ $ $ @ I.V ",
"P.B ;.>.>.1.1.2.>.=X=X;X-X>.=.>.2.>.=._ _ _ *.*.=.=.=._ ~ ~ Q ~ ~ ~ ( ( ~ / / ( z R k.~.~.@X%X#X%XOX(.Y.U T E % @ @ @ $ $ @ P.B ",
"P.B ;.2.=X2.1.>.>.>.=X;X=X:.=.=.>.;.=.( ( ~ ( ( =.=._ ( ~ Q Q ~ ~ Q R l Q ~ ~ ( { k.k.Y.Y.Y.(.OX(.R.k.R R U ( : $ @ @ $ $ @ K.B ",
"P.B 1.>.2.=X;.>.>.>.=X=X:._ _ *.=.;.=.^ ^ ( ~ ( ( _ ( ~ Q Q ~ T.$X@X@X(.U ! ~ ( { R k.k.k.T.U U P U U P T k.*./ % $ $ % $ @ C M ",
"K.B ;.;.1.>.>.>.2.>.=X>._ _ ( _ *.*.( ~ ~ ~ Q ~ ( ( ( ~ %.+X%X%X@X%X%X%X@XZ ^ ( { U R R k.~.k.U P U U gXaXR ( / Q % $ % % $ C M ",
"C M =.>.>.>.>.=X>.>.>.>._ _ _ ( _ _ ( ( ^ ~ ~ ~ ~ _ ).oXOX%X%X%X@X%X%X%X@X~.J ] } U T k.Y.R k.aXdXP D O O P ( Q Q ~ Q % % % V X ",
"C M *.>.>.>.>.>.>.>.:.=.( ~ / ( ( ( ( / Q Q Q ~ ~ ( @X@X@X%X$X%X%X$X%X%X(.~.T ! K I U T k.k.Y.P P Z D P P Z / / Q Q ~ % % Q V X ",
"C M / =.>.>.>.:.>.>.=.( ~ ~ ~ ~ ( ( ^ ~ E Q Q Q ~ { U R T./.(.OX@X/.~.~.Y.T Y H ! U I U T k.P Z P Z Z Z O P ( / Q Q Q Q % % V X ",
"C M *.;.*._ =.=.>.=.( ~ ~ Q ~ ) *.&.Q./.~.E Q Q ~ z R k.R T.~./.R.R Y.Y.P U D P A.@.U U T T Z Z Z m Z P U { _ ( ~ ~ ~ Q Q % V O ",
"V X *.*.( ( ( :.=._ ( ~ ~ W./.(.$X%X%X@X$X/.' Q Q z U T k.k.T Y.U U U P U pXhXP Z.+...Y k.k.P P Z U P E.,._ _ ^ ~ / ~ ~ ~ Q C M ",
"V X ( ( ( ~ ( _ ( ( ~ Q ! ~.(.OX@X$X%X%X%X(.Y.$./ K U U T T U k.U Z N U I Y.U Z A.A.|  .Y.k.P P P '.XX5X6X( _ ~ Q ~ ~ ( Q Q C M ",
"V X ~ ( ( ( ( ~ ~ Q Q Q l T.~.~./.(.(./.^.~.~.Y.z l U U U R R k.T.dXfXN O P I U A._.A.O.O.o.F G.XXXX3X2X1X] ~ E Q Q ~ ~ Q % C M ",
"V O Q ~ ~ ~ ~ ~ Q Q Q Q J k.Y.~.R.~.~.~.~.Y.U I z _ U I U U k.R R P O N D P A N F.A.`.`.]. X'.1X7XiXuX5X].' % % E ~ ~ % Q % K.B ",
"C M % Q ~ ~ ~ Q Q Q Q ~ I Y.Y.Y.~.Y.U T U U U U 1 ( *.I U T R k.L P Z Z N O P Z F.`.D.[.1X5X&XuXiXiX1XXX{ Q % $ % Q E % Q % P.B ",
"C M Q ~ ~ ~ Q Q Q Q Q Q I T R k.U P U U U P T R #.*.A.A.I Y R U P D Z P L U D A.[.`.|.3X2XyXyX7XuX3X_._.l : % % % E % % % % I.V ",
"C M Q ~ ~ ~ Q Q Q Q Q Q I T T R U N Z T U R dXdXL F.A.Z.| F k.R D P P U P x A.F.[.2XXX7X1X5X1X X`._.D.O., : % % % % % % % % U.V ",
"K.B ~ ~ ~ ~ Q Q Q Q Q Q D U k.k.Y.gXfXO P Z O D U Z. . .| { F U A D A G  .`.].}. X3XuXiX2X|.F.D.`.F.A.{ = : % % % % % % % Q U.V ",
"P.B E ~ ( ~ ~ Q Q Q Q Q D U Y.Y.R U o N Z P P A P A.O.Z.Z.| | { { { | A.'.XX2X2X XXX|.[._.`.`.D.'.Z.Z.c l > : % % > : : : Q U.V ",
"K.B % ^ ^ ^ ^ ~ Q Q Q Q P U R Y.P P P Z Z Z N P P O.O.O.@.O.Z.O.A.'.[.D.5XyX2X'.}.}.'.F.Z.F.`.F.A.Z...| z : i g f e p u W ` U.V ",
"C M % Q ~ Q ~ ~ Q Q Q Q Q T R k.P Z O N Z P P A Z  .F.A.Z.F.F._._.'..X1X1X.X}.<X}.XX[.A.Z.F.Z.O.Z.o...x z z g 6.f 5.7.9.v.c.U.V ",
"K.B E ~ ~ Q Q % Q Q % % Q K k.Y.P P D U P P D Z h | Z.Z.Z.D.`.'.}..X|.XXS.'.<X}.[.1X[.Z.Z.A.o.o.O. .z , [ r 6.5.5.5.7.q.p.q.I.V ",
"P.B E E ~ ~ E % E Q Q Q ~ <.k.T S D A D I I P h z | Z.`.`.'.}..X1X|.|.[.F.`.|.|.].2X[.O.Z.o...c c , y t w 6 8.5.5.5.8.u.u.u.P.B ",
"I.V E Q E Q Q % E Q Q E &.XX_.N O A J l z l l l < D.`.2X4X7X1X.X[.[.[._._.F.}.`.D.`.D. . .{ l , j r s 5 9 9 7.0.8.5.0.J.b.f.P.B ",
"U.V E E E E E E Q E Q W Z. X2X]._.A. .{ c l {  ._.XXiXuXuX1X@.}.[.[.'.D.A.D.D.A._.F. .c l , h r p 5 5.7 0 0 5.5.7.5.0.b.f.g.P.B ",
"L.B % % % % % % % % % : A.F.`.F.1X X[.[.'.`._.XXuX7XXX.XXX[.Z.].[.].'.F.o. .O.Z.Z. .l l l - r 6 6.9 5.0 5.5.5.5.5.s 7.u.r.0.j.M ",
"C M % % % % % % % % % : D.F.F.`.F.'.|.{.&X2X5XyX}.F.'.}.F.`.A._.`.}.`.O. .| .. .|  .c - 4 q 6 6 9 9 5.0 5.7.7.7.0 5.5.0.p.M.V X ",
"C M % % % % % % % % % < `.`._._.F.F.F._.}.3X7X[.].[.`.F.`.D.Z.A.A.A.o.o.| | { { c  .| r 4 6 9 5 9 9 0 9 5.0.0.5.5.7.7.u.u.u.V X ",
"C M % % % % % % % % % :  X].'.F._.`.Z.F.F.XXXX_.].`.F.F.'.A.o.o. .o.o.| | { | | { | { q 7 7 9 5 9 9 0 9 5.0.0.7.5.q.8.y.g.u.V X ",
"C M % % % % % % % @ % z {. X}.`.F.`._._.F.[.}.O.F.F.D.D.F.o.|  .| | | | | O.O.| G  .{ t 5 5 9 7 5.s 9 9 5.8.0.0.0.0.7.7.M.p.V X ",
"V X $ $ % % : : $ @ k G 3X1X.X].`.`.`.`.F.].'.Z.F.Z.Z.o.O.O. .{ |  .o.O.Z.o.Z.Z.o.O. .e 7 5 5 7 9.0 4.7.7.7.7.q.0.0.7.7.0.7.V X ",
"V X # $ $ : t e p w f h.x 1X1X1X X}.].`._.[.'.O.F.O.O. .o.|  .Z._.Z.O.A.A.A.A.A.o.Z...x 9 7 7 5 7.0 5.7.s 5.5.0.s u.5.8.0.8.V X ",
"V X : : ; y a 6.0 0 7.t.s 6.X.2X7X.X X|.'.'.].Z.Z...o.{ c  .|.[.`.D.A.D.H.D.F.F.Z.A.o.c 9 5 9 9 7.0 u.8.s 0 0 5.:Xl.wX5.q.7.V X ",
"V O e a p s 9 0 9 u.0.t.5.0.5.v  .uXXXXXXX`.`.o.Z.| c { O.F.1X[.`._.`.F.F.F.F.F.F.A.O.n 9 7 9 7 7.7 7.p.0 5.0.4.qXtXqXe.8.8.V O ",
"C M 0 0 0 0 0 5.s t.0.8.7.0.5.8.7.d _.S.3X].O. .c z |  .Z..X.X'.`.`.`.F.F.F.A.D.F.Z.O.h 7 7 5 5 5.5 7.M.5.0.7.x.:XtXrXwX7.7.C M ",
"C M 0 0 5.8.r.8.8.8.8.0.7.7.7.0.0.7.0.b - < < l c {  .O.O..X.X].`.`.`.F.A.`.Z.F.F.A.O.. 3.5 5 9 4.9 0 0.0 0.5.8 qXeXqXx.7.0.C M ",
"C M s 8.8.y.t.8.8.5.5.0 7.7.7.7.0.7.s 0 0 7 r c  .{ o.Z.F.2X1X}._.F.`.F.F.`.Z.D.D.A.O.t 0 5 0 5 0 0 0 5.0 8.7.8.6.z.e.7.8.0.C M ",
"K.B t.t.u.u.8.5.5.5.7.7.0.5.7.5.5.7.7.5.5.7 6 z | |  .A.'.5X2X].D.F.F.F.F.`.D.F.D.Z...- 8 5 9 7 5.5.5.s 8.7.7.0.w.s 8.8.0.q.C M ",
"P.B p.u.y.0.u.5.7.7.8.8.0.8.8.9 0.7.7.7.0 0 9 n { {  .Z.D.5X5X'._.`._.F.A.`.F.F.O.O.l - 6 9 9 7.7.8.8.7.0.7.5.0 0 0 5.7.7.5.C M ",
"P.B p.u.8.u.u.t.8.8.8.0.0.u.5.0 0.0.7.7.5.s 5.w x c O.O.O.5XsX[.F.F.Z.A.D.Z.A.A.o.< * w 6 9 0 5.a.8.8.5.p.0 0 0 0 0 0 0 0 5.K.B ",
"P.B 8.f.u.v.0Xb.u.0.0.y.y.0.9 5.0.0.8.7.5.7.9.5 d j c A.o.1XsX'.D.A.o.O.O.O.o.c   - 4 9 9 0 5.8.M.7.7.5.0.5 9 0 8 0 0 0 9 5.P.B ",
"K.B u.b.v.n.6.wXC.B.d.y.y.0.s p.5.7.7.7.9.7.0.5 0 d k | A.|.8X_.Z.O.o. .{ l - t s 9 0 9 0 0 5.0.d.7.9 0 7.9 5 7.s 7.7.0 s 0.P.B ",
"C M s.s.b.qX:XqXqX:Xi.b.p.0.5.0.7.4.5.5.7.5.0 s 5.6 s , | }.5XA.o.O.z & l t 6 6 9 0 9 5 4.0 7.0.q.7.5.0 0 5.4.0.5.7.0.5.7.8.P.B ",
"K.B p.0.v.V.V.:XtXeXr.u.u.0.0.9 5.5.0 5.5.4.9.s s 9 s p , '.`.c - < - w 0 9 9 9 9 5.9 4.4.5.0.7.0.0.9 5.0 s 5.0.5.4.5.q.0.7.I.V ",
"P.B s.0.4.s B.eXrXqXqXu.0.p.q.u.y.5.0 5.0 0.8.s 9 0 0 5.8.z = l j 6 5 9 9 9 0 5.s 0 s 7.5.5.7.s 7.4.9 9 5.0 s q.7.0 0.8.5.7.U.V ",
"P.B 7.0.9 5.0 :X>XqXm.r.5.0.0.u.t.0.5.5.5.5.7.5.9 0 0 0 8.6.4 5.s 5 5 5 6 9 9 5.5.0 7.7.5.0 0 0 5.4.0 4.0 0 5.9 0.5.5.a.5.7.U.V ",
"P.B 7.7.0 0 s d.N.9Xu.7.s 0.8.u.8.7.5.5.0 7.s 0 0 q.9 s 5.5.6.5.0 5 6 0 0 0 s 0 s 0.5.7.s 0 7 9 0 0 6 0 8 7 5.0 0 0 q.u.5.7.U.V ",
"P.B 5.7.7.0 7.7.8.d.8.0 0 5.5.0.0.7.9 0 9 8.s s 9 p.9 5.5.0.9 w.9 5.0 0 0 0 s 0 0 7.4.5.7.0.7.7.7.5.4.0 5 8 7 0 9 4.0.8.5.0.I.V ",
"P.B 5.7.7.q.7.9.0.7.0 7 s 0 5.0.0.0 5 0 0 s 8.r.u.8.5.5.u.5.5.u.7.s 0 0 0 0 9 5.5.0 5.7.8.0.0.8.0.5.7.7 7 9 2 7 0 0 p.a.7.u.P.B ",
"K.B 7 7 7.0 7 0 7.0 0 5.u.5.5.7.5.5 8 0 0 5.5.8.5.8.7.5.u.0.0.0.w.5.9 0.9 0 9 5 0 5.5.7.7.q.7.0.7.0.q.0 7 7 7 7 5.0 0 0.5.0.P.B ",
"C M 0 7 5 2 9 7 5 4.5.0.s.0.s 0 5 7 7 5.s 0 7 7 7 0 5.0.q.0.0.5.7.5.5.5.0 0 8.7.5.5.7.0.q.0.0.7.7.0 0 7 5 7 5 7 5.7 9 7.p.7.P.B ",
"C M 0 0 5 3 5 5 0 5.7 0 w.7.4.0 7 7 7 7.0 4.7 5 0 0 s 8.0.5.5.0.q.5.5.5.9 s 5.5.5.5.0.5.7.8.0.0.q.8.7.5 7 5 7 7 4.9 0 4.7.5.K.B ",
"C M 0 5 5 7 5 9 0 9 7 9 9 5.9 9 s 0 9 7.s 0 7 9 7 5 9 0 0 0 0 s 0.7.s s s 7.5.p.7.7.5.5.8.0.u.8.0.0.0.5 7 5 7 5 5.9 9 8 7 4.C M ",
"C M 0 2 5 5 6 0 5 7 7 7 s s 4.6 4.0 9 5.5.5.s 9 7 5 5 9 s s 0 9 9.7.0 5.5.7.q.7.0.0.7.5.0.u.0.7.5.7.7 7 2 5 7 0 8 9 8 7 7 9 C M ",
"V X 9 7 9 5 5 7 0 5 9 9 s 7 3 0 7 7 7 5.8.8.u.7.5.9 5 6 5 0 7 7 0 5.5.5.7.0.q.7.7.5.7.0.s 0.9 9 9 9 9 5 0 5 0 0 8 9 7 8 8 7 C M ",
"V V V V V C C C C K.P.P.P.P.P.K.C V V C C C C K.P.P.P.P.P.P.P.I.U.U.U.U.U.I.P.P.P.P.P.I.U.U.U.I.P.P.P.P.P.P.P.K.C V V V V C C M ",
"X X X X X M M M M B B B B B B B M O X M M M M B B B B B B B B V V V V V V V B B B B B V V V V V B B B B B B B B M O X X X M M M "
};
