/* XPM */
static char *_22eaf2faf1843bfc24edfcaa09c2ea4MXknyJh7KbmarHy5[] = {
/* columns rows colors chars-per-pixel */
"64 64 53 1 ",
"  c #271E11",
". c #2C2213",
"X c #2F2413",
"o c #302413",
"O c #312614",
"+ c #362A15",
"@ c #372A15",
"# c #3F3F3F",
"$ c #41311A",
"% c #632805",
"& c #773007",
"* c #556809",
"= c #5E720D",
"- c #737B0D",
"; c #7C623E",
": c #0C6B50",
"> c #0D6B50",
", c #0E7C5D",
"< c #0F7C5D",
"1 c #1B5D65",
"2 c #1C5D65",
"3 c #2A4E7A",
"4 c #2B4E7A",
"5 c #444444",
"6 c #494949",
"7 c #911111",
"8 c #911211",
"9 c #BC1616",
"0 c #BC1717",
"q c #CE1818",
"w c #897E08",
"e c #8C6D40",
"r c #957341",
"t c #987D4A",
"y c #758E11",
"u c #118E6B",
"i c #998D09",
"p c #A89B0A",
"a c #A8844D",
"s c #A28551",
"d c #B89156",
"f c #BF9B64",
"g c #CCA66C",
"h c #315B8E",
"j c #3163A3",
"k c #3263A3",
"l c #898988",
"z c #888989",
"x c #898989",
"c c #9E9F9F",
"v c #9F9F9F",
"b c #B4B5B5",
"n c gray71",
/* pixels */
"ettttrrrr;;;rrrrrtttttttttrrtttdettttrrrr;;;rrrrrtttttttttrrtttd",
"r .....X+X..... ....XXX   XXX. fr .....X+X..... ....XXX   XXX. f",
"t.X+++++++++XX...+++++++Xhhh3X.ft.X+++++++++XX...+++++++Xhhh3X.f",
"tX++$$$$$$$+++++++$iiiw$+hjh3+XftX++$$$$$$$+++++++$iiiw$+hjh3+Xf",
"rX+$$$$9997$++++++$iiiw$+hjh3+XfrX+$$$$9997$++++++$iiiw$+hjh3+Xf",
";++$$$+9q97$$$+$$==ippw$$hjh3++d;++$$$+9q97$$$+$$==ippw$$hjh3++d",
"r997$&%9q97$$$$$$y=vnnx97hjh3u,dr997$&%9q97$$$$$$y=vnnx97hjh3u,d",
"t9q7+&%9q97hhh$$yy=vnnx97hjh3u,ft9q7+&%9q97hhh$$yy=vnnx97hjh3u,f",
"t9q7+&%9q97hjh+Xy=*ippw97hjh3u,gt9q7+&%9q97hjh+Xy=*ippw97hjh3u,g",
"t9q7+&%9q97hjhX.y=+ippw97hjh3u,gt9q7+&%9q97hjhX.y=+ippw97hjh3u,g",
"t9q7%&%9q97hjh.y=*+ippw77hjh3u,ft9q7%&%9q97hjh.y=*+ippw77hjh3u,f",
"r9q7&%%9q97hjh.y=*+ippw77hjh3u,dr9q7&%%9q97hjh.y=*+ippw77hjh3u,d",
"rxnx6#$9q97hjhyy=+Xippw7&hjh3u,frxnx6#$9q97hjhyy=+Xippw7&hjh3u,f",
"r77&%%$777&hj3==*+Xwww-&&hhh3,,fr77&%%$777&hj3==*+Xwww-&&hhh3,,f",
"r&&&%%+&&&&333**+XX----&&3333::dr&&&%%+&&&&333**+XX----&&3333::d",
"sdddffffggggffffddddffggfffdddddsdddffffggggffffddddffggfffddddd",
"arrrrrttttttttrrr;;rrttttrrr;;rdarrrrrttttttttrrr;;rrttttrrr;;rd",
"t   XX   X++O..OO++..   ...  . ft   XX   X++O..OO++..   ...  . f",
"t XXXXXX++++===*+777O. ........gt XXXXXX++++===*+777O. ........g",
"t9997+++hhh3=y=*7q97++++++++++.ft9997+++hhh3=y=*7q97++++++++++.f",
"r9q97+$$hjh3=y=*7q97.$$===*$$++dr9q97+$$hjh3=y=*7q97.$$===*$$++d",
";xnvx,,:hjh3=y=*&997.+$=y=*,,,:d;xnvx,,:hjh3=y=*&997.+$=y=*,,,:d",
";xnvx,u:hjh3=y=*&7997.$=y=*,u,:d;xnvx,u:hjh3=y=*&7997.$=y=*,u,:d",
"r9q97,u:hjh3565#&7997.+=y=*vnvxfr9q97,u:hjh3565#&7997.+=y=*vnvxf",
"r9q97,u:hjh3565#+&997.+=y=*vnvxfr9q97,u:hjh3565#+&997.+=y=*vnvxf",
"r9q97,u:hjh3565#+&997.+=y=*vnvxdr9q97,u:hjh3565#+&997.+=y=*vnvxd",
";9q97,u:vnvx565#+&7997.=y=*,u,:d;9q97,u:vnvx565#+&7997.=y=*,u,:d",
";9q97,u:hjh3=y=*+&799x.=y=*,u,:d;9q97,u:hjh3=y=*+&799x.=y=*,u,:d",
"r9997,,:hjh3=y=*$+xxn7.=y=*,,,:dr9997,,:hjh3=y=*$+xxn7.=y=*,,,:d",
"r7777vxxhhh3===*$+&7777===*::::fr7777vxxhhh3===*$+&7777===*::::f",
"t&&&&1113333****++&&77+****1111ft&&&&1113333****++&&77+****1111f",
"sfgggfffdddddfddddfffgggffdddfffsfgggfffdddddfddddfffgggffdddfff",
"ettttrrrr;;;rrrrrtttttttttrrtttdettttrrrr;;;rrrrrtttttttttrrtttd",
"r .....o@...... ....O..   XXX. fr .....X+X..... ....XXX   XXX. f",
"t.o+++++++++oo...@@@+@++Xhhh3X.ft.X+++++++++XX...+++++++Xhhh3X.f",
"to++$$$$$$$++++++@$iiii@+hkh3+XftX++$$$$$$$+++++++$iiiw$+hjh3+Xf",
"r.@$$$$9997$@@@@+@$iiiiO+hkh3+XfrX+$$$$9997$++++++$iiiw$+hjh3+Xf",
";++$$$+9q97$$$@$@==ippiX+hkh3++d;++$$$+9q97$$$+$$==ippw$$hjh3++d",
"r997$&%9q97$$$$$$y=vnnx07hkh3u,dr997$&%9q97$$$$$$y=vnnx97hjh3u,d",
"t9q7+&%9q97hhh$$yy=vnnx08hkh3u,ft9q7+&%9q97hhh$$yy=vnnx97hjh3u,f",
"t9q7+&%9q97hkh@oy=*ippi07hkh3u,gt9q7+&%9q97hjh+Xy=*ippw97hjh3u,g",
"t9q7+&%9q97hkh. y=@ippw07hkh3u,gt9q7+&%9q97hjhX.y=+ippw97hjh3u,g",
"t9q7%&%9q07hjh y=*@ippw77hkh3u,ft9q7%&%9q97hjh.y=*+ippw77hjh3u,f",
"r9q7&%%9q07hjh y=*@ipiw77hkh3u,dr9q7&%%9q97hjh.y=*+ippw77hjh3u,d",
"rxnx6#$9q07hkhyy=+.ippw7&hkh3u,frxnx6#$9q97hjhyy=+oippw7&hjh3u,f",
"r77&%%$777&hkh==*+Owww-&&hhh3,,fr77&%%$777&hj3==*+owww-&&hhh3,,f",
"r&&&%%+&&&&333**+.O----&&3333::dr&&&%%+&&&&333**+oo----&&4443::d",
"sdddffffggggffffddddffggfffdddddsdddffffggggffffddddffggfffddddd",
"arrrrrttttttttrrr;;rrttttrrr;;rdarrrrrttttttttrrr;;rrttttrrr;;rd",
"t   XX   X++oX.Xo++..   ...  . ft   X. . o++o..oO++..   ...  . f",
"t O.oo.O++++===*+777oX ........gt XXXXXX++++===*+777O. ........g",
"t9997+@@hhh3=y=*7q97++++++++++.ft9998+++hhh3=y=*7q97++++++++++.f",
"r9q97+$$hjh3=y=*7q97.$$===*$$++dr9q97+$$hkh3=y=*7q97.$$===*$$++d",
";xnvx,<:hjh3=y=*&997.+$=y=*,,,:d;zbvx,,:hkh3=y=*&997.+$=y=*,,,:d",
";xnvx,u:hjh3=y=*&7997.$=y=*,u,>d;znvx,u>hkh3=y=*&7997.$=y=*,u,:d",
"r9q97,u:hjh3565#&7997.+=y=*cncxfr9q97,u>hkh3565#&7997.+=y=*vnvxf",
"r9q97,u:hjh3565#+&997.+=y=*vnvxfr9q97,u:hjh3565#+&997.+=y=*vnvxf",
"r9q97,u:hjh3565#+&997.+=y=*vnvxdr9q97,u:hjh3565#+&997.+=y=*vnvxd",
";9q97,u:vnvx565#+&7997.=y=*,u,:d;9q97,u:vnvx565#+&7997.=y=*,u,:d",
";9q97,u:hjh3=y=*+&799x.=y=*,u,:d;9q97,u:hjh3=y=*+&799x.=y=*,u,:d",
"r9997,,:hjh3=y=*$+xxn7.=y=*,,,:dr9997,,:hjh3=y=*$+xln7.=y=*,,,:d",
"r7777vxxhhh3===*$+&7777===*::::fr7777vxzhhh3===*$+&7777===*::::f",
"t&&&&1123333****++&&77+****1112ft&&&&2114444****@+&&77+****2221f",
"sfgggfffdddddfddddfffgggffdddfffsfgggfffdddddfddddfffgggffdddfff"
};
