/* XPM */
static char *f0fca1273a08469985cff08b8c989705pg7TqI9EraqmibnR[] = {
/* columns rows colors chars-per-pixel */
"64 64 7 1 ",
"  c #291A0C",
". c #301E0E",
"X c #3A2411",
"o c #3E2912",
"O c #492F17",
"+ c #4F3218",
"@ c #53381A",
/* pixels */
"+@@@@@@@++@@@+@@@@@++@+@@+@@@@@X o+o++++ oO++O++ oO+o++@.oO+O+O+",
"OOO@++OO+OOO++++@++OOO+O+++@++Oo X+o+o+@ oOO+oO@ oOoo++@ oO+o+O@",
"+++OOooXooooOOOO+OooooOOOoo++OOX.oOoOoO+.X+O+oO+ XOoOo@@.oOo++O@",
"Oo++OOOO++oOO+oXoo++Oooo++OOooXX.XoOOoO+ XoO+o+@ X+oOo+@.X+o+O@@",
"++oo+++oooO+++OOOoooOO++ooXooOOo.Xo+OoO+.X++Oo+@.X+XOOO@ X++OO+@",
"OOO++oOOO+oooO++OOO+o+OOOoOOO++X Xo+o+O@ XO+oOo@ oOoO++@.Xo+Oo+@",
"oooXXXXooooXXXXooXoXXXXXoooXXoX .XOoX+O@.XO+oOo@ XO+Oo++ XO+OoO@",
". .. .   ...  . .  .  .. .  ..   oO+o+O@ o+OXOo@.oOoOoO+ oOoOXO@",
"@@@@@@++@@@@+++o@++@@@@@@++@@@@@ oO+o+@@ ooOoOO@ oO+oO+@ oOo+o++",
"++@+O++O++@+OOOo+OO++@OOOO++@OOO Xo+o+O@ XoOoO++ X++oO+@.o+o+oO+",
"++ooO+ooOOOOOo+XOO+ooooo+Ooo++++.XOoOoO@.XoOoO++.XOOXO@@.ooOooO@",
"ooOOOOOOooXooOOo++oo++ooXo+OOOOo XOoOoO+.o+ooOO+.XoOoO+@.Xo+OoO@",
"+oooXo+o++OO+++X++++OO++O++oooXo.X+X+o+@ X+oOoO@ oO+oOO+ Xo+OO+@",
"OOO++OOOO+OoOO+XOOOO+oOOOOO++OOO.X+o+O+@.XOXOoO@.oO+OoO+ XO++O++",
"ooXXXoXooXXXooo ooXooXooXXXXooXX o+O+O++.XOoO+o+ o++O+O+.X+OoO+@",
"    .  .  .. .  . . .   .  ....  XXXoXoo oOoO+o@  XXoXoo o+OXO+@",
"+@+@@@@@@+++@@+@+@+@@@@@++@@++@o o+o+OO+ XO+O+o+.oO++O+@.oOOo+@@",
"+OO++oooO++OOOooooo++@++OO++O++X.oOo++O+ XO+O+o@ oO++OO+ XOooO+@",
"OooooOOOOOOOoo++++OO+oooXooOOOOo XOo+o+@.XoO+Oo+.XO+o+O+ oOo+o+@",
"++++OooXooooOOOOOO+ooOOOOOOooooX.XOoOo+@ X+OoO+@ oO+oo+@.X+o+oO+",
"+OOO+++OOOOooXoo++OOO++ooooo+++X XO+oo@@.o+Oo++@.o+O+o+@ XoOOoO+",
"OO+o+OO+ooo++OOOOOo++OOOOOO+OOoo Xo+OXO@ XO+Oo@@ XoO+o@@ X+OooO@",
"ooXXXXXooXXoXXXoXXXXoXXXXoXoooo .oOoOoO+ XO+Oo+@ oO+ooO@.XO+oO++",
"  . . .   .. ..   . .    . .. .  oOo+o+@ XOoOo+@ oO+ooO@.XO+oOO@",
"+@+++@@@@@@+@@+o++@@@@+@+@@@@@@@ XOo+O++ XOoOXO+.XOOX+O@ oOo+O+@",
"++OOOOOO@OOO+++oOO++@OO++OOO+@++.XOo+OO@.oOoOoO+ XO+oOO+.ooo+o++",
"+oooo+++++oooOOXO+oooXooOOO++ooo XOoOOO@ XOoOo+@ XO++o++ oOXOo+@",
"++OOOoXoooOO+++o+++OoOO+++OOOOOO oOXO+O@.o+ooO+@.X+oOo+@ XOoO+@@",
"oooO++o+++ooXoOXoooo++oooooXo+++ XOoO++@.oO+oOO+.o+oO+@@.XOoo++@",
"++OoooOOOoOO+++X+OOOOoOOOOOOOOOO oO+Oo@@ oO+oO++.oOoO+O@.o+OoO+@",
"oXoXXXXooXXXXXoXooXXXXooXXXoXooo oO+Oo+@.oo+oO+@.XOXO+O@ X+OXOO@",
"  ... .   . ..   . .  .  .       oO+Oo+@  oXXoXo XOoo+O@  XoXXoX",
" o+o++++ oO++O++ oO+o++@.oO+O+O++@@@@@@@++@@@+@@@@@++@+@@+@@@@@X",
" X+o+o+@ oOO+oO@ oOoo++@ oO+o+O@OOO@++OO+OOO++++@++OOO+O+++@++Oo",
".oOoOoO+.X+O+oO+ XOoOo@@.oOo++O@+++OOooXooooOOOO+OooooOOOoo++OOX",
".XoOOoO+ XoO+o+@ X+oOo+@.X+o+O@@Oo++OOOO++oOO+oXoo++Oooo++OOooXX",
".Xo+OoO+.X++Oo+@.X+XOOO@ X++OO+@++oo+++oooO+++OOOoooOO++ooXooOOo",
" Xo+o+O@ XO+oOo@ oOoO++@.Xo+Oo+@OOO++oOOO+oooO++OOO+o+OOOoOOO++X",
".XOoX+O@.XO+oOo@ XO+Oo++ XO+OoO@oooXXXXooooXXXXooXoXXXXXoooXXoX ",
" oO+o+O@ o+OXOo@.oOoOoO+ oOoOXO@. .. .   ...  . .  .  .. .  ..  ",
" oO+o+@@ ooOoOO@ oO+oO+@ oOo+o++@@@@@@++@@@@+++o@++@@@@@@++@@@@@",
" Xo+o+O@ XoOoO++ X++oO+@.o+o+oO+++@+O++O++@+OOOo+OO++@OOOO++@OOO",
".XOoOoO@.XoOoO++.XOOXO@@.ooOooO@++ooO+ooOOOOOo+XOO+ooooo+Ooo++++",
" XOoOoO+.o+ooOO+.XoOoO+@.Xo+OoO@ooOOOOOOooXooOOo++oo++ooXo+OOOOo",
".X+X+o+@ X+oOoO@ oO+oOO+ Xo+OO+@+oooXo+o++OO+++X++++OO++O++oooXo",
".X+o+O+@.XOXOoO@.oO+OoO+ XO++O++OOO++OOOO+OoOO+XOOOO+oOOOOO++OOO",
" o+O+O++.XOoO+o+ o++O+O+.X+OoO+@ooXXXoXooXXXooo ooXooXooXXXXooXX",
" XXXoXoo oOoO+o@  XXoXoo o+OXO+@    .  .  .. .  . . .   .  .... ",
" o+o+OO+ XO+O+o+.oO++O+@.oOOo+@@+@+@@@@@@+++@@+@+@+@@@@@++@@++@o",
".oOo++O+ XO+O+o@ oO++OO+ XOooO+@+OO++oooO++OOOooooo++@++OO++O++X",
" XOo+o+@.XoO+Oo+.XO+o+O+ oOo+o+@OooooOOOOOOOoo++++OO+oooXooOOOOo",
".XOoOo+@ X+OoO+@ oO+oo+@.X+o+oO+++++OooXooooOOOOOO+ooOOOOOOooooX",
" XO+oo@@.o+Oo++@.o+O+o+@ XoOOoO++OOO+++OOOOooXoo++OOO++ooooo+++X",
" Xo+OXO@ XO+Oo@@ XoO+o@@ X+OooO@OO+o+OO+ooo++OOOOOo++OOOOOO+OOoo",
".oOoOoO+ XO+Oo+@ oO+ooO@.XO+oO++ooXXXXXooXXoXXXoXXXXoXXXXoXoooo ",
" oOo+o+@ XOoOo+@ oO+ooO@.XO+oOO@  . . .   .. ..   . .    . .. . ",
" XOo+O++ XOoOXO+.XOOX+O@ oOo+O+@+@+++@@@@@@+@@+o++@@@@+@+@@@@@@@",
".XOo+OO@.oOoOoO+ XO+oOO+.ooo+o++++OOOOOO@OOO+++oOO++@OO++OOO+@++",
" XOoOOO@ XOoOo+@ XO++o++ oOXOo+@+oooo+++++oooOOXO+oooXooOOO++ooo",
" oOXO+O@.o+ooO+@.X+oOo+@ XOoO+@@++OOOoXoooOO+++o+++OoOO+++OOOOOO",
" XOoO++@.oO+oOO+.o+oO+@@.XOoo++@oooO++o+++ooXoOXoooo++oooooXo+++",
" oO+Oo@@ oO+oO++.oOoO+O@.o+OoO+@++OoooOOOoOO+++X+OOOOoOOOOOOOOOO",
" oO+Oo+@.oo+oO+@.XOXO+O@ X+OXOO@oXoXXXXooXXXXXoXooXXXXooXXXoXooo",
" oO+Oo+@  oXXoXo XOoo+O@  XoXXoX  ... .   . ..   . .  .  .      "
};
