/* XPM */
static char *_f66db0fa1b0462de822f73c2ea8bc5cxBaao4TFMBhfid3m[] = {
/* columns rows colors chars-per-pixel */
"64 64 22 1 ",
"  c #111111",
". c gray7",
"X c #222222",
"o c gray20",
"O c #3F3E42",
"+ c #494848",
"@ c gray31",
"# c gray34",
"$ c #595858",
"% c gray39",
"& c #686868",
"* c #72796E",
"= c #747474",
"- c gray50",
"; c #888788",
": c gray56",
"> c #979797",
", c gray61",
"< c #AAABAA",
"1 c #ABACAB",
"2 c gray71",
"3 c #C5C5C5",
/* pixels */
">>>>>#%%%o#ooo##ooXo#ooo#%%%%%%#>>>>>#%%%o#ooo##ooXo#ooo#%%%%%%#",
"#>>%%>#o##oo#%%oo#oXXoo##o%oo#o##>>%%>#o##oo#%%oo#oXXoo##o%oo#o#",
"o##%o###oo%%>>%%%%###%%oXXo%%o#oo##%o###oo%%>>%%%%###%%oXXo%%o#o",
"##o##o#oo###%%%oo##ooXoXXoX%##oo##o##o#oo###%%%oo##ooXoXXoX%##oo",
">##oXXXXooXo#oXXoXooXo##%%>>>>#>>##oXXXXooXo#oXXoXooXo##%%>>>>#>",
"%%##o#Xo#oo#>>#XXoo###oo%>>>#oo#%%##o#Xo#oo#>>#XXoo###oo%>>>#oo#",
"#oX#>>>>%%>>#%>#>#>>%%%%%%##oooo#oX#>>>>%%>>#%>#>#>>%%%%%%##oooo",
"#%%>>>#o>%#>>%%%%>>##oo##oooo####%%>>>#o>%#>>%%%%>>##oo##oooo###",
"oo#o##>#oXXo%%oo###>>%>>>#oX%%#ooo#o##>#oXXo%%oo###>>%>>>#oX%%#o",
"o###o#oooo###o#oo#o#>>>>#ooo#>>#o###o#oooo###o#oo#o#>>>>#ooo#>>#",
"##>>#%%%%#>>%%###>#oo#ooo##XXo#>##>>#%%%%#>>%%###>#oo#ooo##XXo#>",
"#>>%%#oo%oo#o#>>>#o#oXXoXoXXo#o##>>%%#oo%oo#o#>>>#o#oXXoXoXXo#o#",
"o###o##>>>>>#o#>>>%##oXXooo%%%##o###o##>>>>>#o#>>>%##oXXooo%%%##",
"#oo##o>##>>#ooo%%##ooooo##>>%%%%#oo##o>##>>#ooo%%##ooooo##>>%%%%",
"oo##oXXXo#Xoo#oXo#ooo#ooXo#%%o%#oo##oXXXo#Xoo#oXo#ooo#ooXo#%%o%#",
"ooooXXXooXXXoooo#o##oo#oo##oo###ooooXXXooXXXoooo#o##oo#oo##oo###",
"o#>>#oXXooo#o##>#%>>##oo#%%%#oooo#>>#oXXooo#o##>#%>>##oo#%%%#ooo",
"#>>>>>#o#>%%%%>#>>%%#o#%%>%>ooo##>>>>>#o#>%%%%>#>>%%#o#%%>%>ooo#",
">%%o%>#%>oo%>>>>>>>%%#>>>>>#>>#>>%%o%>#%>oo%>>>>>>>%%#>>>>>#>>#>",
"ooo##%%%%%%%%>>#o#oo#%%>>%#>>%%#ooo##%%%%%%%%>>#o#oo#%%>>%#>>%%#",
"Xo#o#o##oo##oXXXXoo#oo%%#oXXooXoXo#o#o##oo##oXXXXoo#oo%%#oXXooXo",
"XXo#oXX###oXXooXoo#>>#o#oXo###oXXXo#oXX###oXXooXoo#>>#o#oXo###oX",
"#o#>>>#o%oo%%%o%#>>>#>#>>#>o#>>##o#>>>#o%oo%%%o%#>>>#>#>>#>o#>>#",
"##>%o%%%%%>>>>#%%%>>>###>>#oX#>:##>%o%%%%%>>>>#%%%>>>###>>#oX#>:",
">%oo%#oo#>#>>#oo%#%%%%%>#ooXoXo#>%oo%#oo#>#>>#oo%#%%%%%>#ooXoXo#",
"o%%ooooXo#>##o#oo#oo#oXoXXoo#o#oo%%ooooXo#>##o#oo#oo#oXoXXoo#o#o",
">>#>>##oXoo#>#ooXo#oo#oXXo#oooo#>>#>>##oXoo#>#ooXo#oo#oXXo#oooo#",
"#>>##ooooo#####>ooo##oo#o#ooo#>>#>>##ooooo#####>ooo##oo#o#ooo#>>",
">##oo#oo##oo#>>%#%%%%##>>#>>#o#>>##oo#oo##oo#>>%#%%%%##>>#>>#o#>",
"#%oooo#>>%%%%#%%%%#>>#oo>>>#>>>%#%oooo#>>%%%%#%%%%#>>#oo>>>#>>>%",
"%%%%#oo#%%##oo%ooo>>#>>#o#oXXo%%%%%%#oo#%%##oo%ooo>>#>>#o#oXXo%%",
"%>>#####oo###ooo##o#>>###ooo####%>>#####oo###ooo##o#>>###ooo####",
">>>>>#%%%o#ooo##ooXo#ooo#%%%%%%#3111::::&&==&======&=&&&3111::::",
"#>>%%>#o##oo#%%oo#oXXoo##o%oo#o#1OOOOOO&+@@++++++++@++++1OOOOOO&",
"o##%o###oo%%>>%%%%###%%oXXo%%o#o1O@@@@$&$++@@@++$$+@@@@@1O@@@@$&",
"##o##o#oo###%%%oo##ooXoXXoX%##oo1O$@@@@&$++++@@@@$$$$+@@1O$@@@@&",
">##oXXXXooXo#oXXoXooXo##%%>>>>#>:O@++@$&++OOOO+++++@++++:O@++@$&",
"%%##o#Xo#oo#>>#XXoo###oo%>>>#oo#:O@@@$$*+++++OOOO++O+++$:O@@@$$*",
"#oX#>>>>%%>>#%>#>#>>%%%%%%##oooo:O@$$$@*@+++++O+OOO+++++:O@$$$@*",
"#%%>>>#o>%#>>%%%%>>##oo##oooo###=******;@@+++++++@@@@@@@=******;",
"oo#o##>#oXXo%%oo###>>%>>>#oX%%#o&OOOOOO+$+$$$+@@@@+++++++OO++++&",
"o###o#oooo###o#oo#o#>>>>#ooo#>>#&O+++++@$$$@++++++++++OOOO+++@+&",
"##>>#%%%%#>>%%###>#oo#ooo##XXo#>&O++++$$$@++++++++$+OO+++++@@@@&",
"#>>%%#oo%oo#o#>>>#o#oXXoXoXXo#o#=+++@++++++++O+++$$$+++++@@$$$$=",
"o###o##>>>>>#o#>>>%##oXXooo%%%##=@@@@+;;;;;;;;;;==========$++$O=",
"#oo##o>##>>#ooo%%##ooooo##>>%%%%=$$++@;333333333331<<1<<1=OOOOO=",
"oo##oXXXo#Xoo#oXo#ooo#ooXo#%%o%#=+$$$+;1 1  1  1  1  1  1=@@OOO=",
"ooooXXXooXXXoooo#o##oo#oo##oo###=OO+++;1 1  1  1  1  1  1=$OO+O=",
"o#>>#oXXooo#o##>#%>>##oo#%%%#ooo=++@@@;& 1  1  1  1  1  1=+O++@=",
"#>>>>>#o#>%%%%>#>>%%#o#%%>%>ooo#&+++++=& 1  1  1  1  1  1=++@@@&",
">%%o%>#%>oo%>>>>>>>%%#>>>>>#>>#>:22222,& 1  1  ,  1  1  1$22222:",
"ooo##%%%%%%%%>>#o#oo#%%>>%#>>%%#&:::,,$& 1  1  ,  1  1  1$:::::&",
"Xo#o#o##oo##oXXXXoo#oo%%#oXXooXo&;:::,$& 1  ,  ,  1  1  1$:::;:&",
"XXo#oXX###oXXooXoo#>>#o#oXo###oX&;:;:;$& 1  ,  ,  ,  1  1$;::;:&",
"#o#>>>#o%oo%%%o%#>>>#>#>>#>o#>>#&;:;;;#& ,  , .,  ,  ,  1$;;:;:&",
"##>%o%%%%%>>>>#%%%>>>###>>#oX#>:&;:;;:#& ,  , .,  ,  ,  1$:::;;&",
">%oo%#oo#>#>>#oo%#%%%%%>#ooXoXo#&;::;:+&.,..,..,  ,  ,  1+:;:;;&",
"o%%ooooXo#>##o#oo#oo#oXoXXoo#o#o$;;:;:+*3,33,33,33,33,33*+;;;;;$",
">>#>>##oXoo#>#ooXo#oo#oXXo#oooo#$;;:;:+******************+;-:;:$",
"#>>##ooooo#####>ooo##oo#o#ooo#>>$;;:;;++++++++$$$$$$$$$$$$--;;=$",
">##oo#oo##oo#>>%#%%%%##>>#>>#o#>$;;-:;--:-:-:--=>:-::-=---=:;-=$",
"#%oooo#>>%%%%#%%%%#>>#oo>>>#>>>%$-;=--=:-=-:--=->-=-::-===---:=$",
"%%%%#oo#%%##oo%ooo>>#>>#o#oXXo%%$--=-==--==--===--===--=-====-=$",
"%>>#####oo###ooo##o#>>###ooo####$$$$$$$$$$##########$$$$$$$$$$$$"
};
