/* XPM */
static char *a9ee7660d5b84355aef9ab0fcfc782a26Z1x8Efxq1CmtGpU[] = {
/* columns rows colors chars-per-pixel */
"64 64 7 1 ",
"  c #5A595A",
". c gray39",
"X c #6A6D6A",
"o c #787678",
"O c gray50",
"+ c #8B898B",
"@ c #9C999C",
/* pixels */
"+@@@@@@@@@@@@@@@@@@@@@@@@@+++++ +@@@@@@@@@@@@@@@@@@@@@@@@@+++++ ",
"@O++OOOO+++OOO++++OOOOOOO++O+++ @O++OOOO+++OOO++++OOOOOOO++O+++ ",
"@++++++++++++O++OoooO+OOOOOOOO+ @++++++++++++O++OoooO+OOOOOOOO+ ",
"@+OO+++O+++OOOOOOOO+++O+++O++OO @+OO+++O+++OOOOOOOO+++O+++O++OO ",
"@+++OO++OOO++O+OO+++++++OOOOOOo @+++OO++OOO++O+OO+++++++OOOOOOo ",
"@O+++OOO++++OOOOOOO+oO+++OOoOOO @O+++OOO++++OOOOOOO+oO+++OOoOOO ",
"@OOOOO+OO+O++OoooOOOOOO+OOoOooO @OOOOO+OO+O++OoooOOOOOO+OOoOooO ",
"@oOOOOOOOOOOOOOOOOO+++oOOOOOooo @oOOOOOOOOOOOOOOOOO+++oOOOOOooo ",
"@ooooOOOoOOOOoOOO+OOOooooooOOOo @ooooOOOoOOOOoOOO+OOOooooooOOOo ",
"@ooOOooooooOoooOOoooOOooooooooo @ooOOooooooOoooOOoooOOooooooooo ",
"@oooooOooOoOOooooooooooOOOoOooo @oooooOooOoOOooooooooooOOOoOooo ",
"@OOoooooOOOooooOOoOooOOoOoooOOo @OOoooooOOOooooOOoOooOOoOoooOOo ",
"+ooOOXOOoooooooooOoOOoooooXoooo +ooOOXOOoooooooooOoOOoooooXoooo ",
"+OOOXXXooooOoOOooooOOOooOXXoooO +OOOXXXooooOoOOooooOOOooOXXoooO ",
"XXXXXXXXXXXXXXXXXXXXXXXXXXXXXXX XXXXXXXXXXXXXXXXXXXXXXXXXXXXXXX ",
".....   .....     ...................   .....     ..............",
"@@@@@@@@@@@@+++ +@@@@@@@@@@@@@@@@@@@@@@@@@@@+++ +@@@@@@@@@@@@@@@",
"+O++++O++++OOO+ @+++++++O++++++++O++++O++++OOO+ @+++++++O+++++++",
"OOOO+++OOOO++OO @++O+++++O+O++OOOOOO+++OOOO++OO @++O+++++O+O++OO",
"++OOOOO+OOOOOOO @+O+OO++O+++OOOO++OOOOO+OOOOOOO @+O+OO++O+++OOOO",
"OOO+OOOOOOoO++O @OOOOOOOOO+O++OoOOO+OOOOOOoO++O @OOOOOOOOO+O++Oo",
"O+OOOO++++OOOOO @OOO+OooOOOOOOOOO+OOOO++++OOOOO @OOO+OooOOOOOOOO",
"OOO++++OOOOOO+o @oOOooOOOOOOOO+OOOO++++OOOOOO+o @oOOooOOOOOOOO+O",
"OOOO++O++OOoOOo @OoooooOooOOoOOOOOOO++O++OOoOOo @OoooooOooOOoOOO",
"OO++OOOOoOOOOoo @ooOoOoooOOOOOOOOO++OOOOoOOOOoo @ooOoOoooOOOOOOO",
"OOOOOooOOoOoooX @OooooooOOoO+OooOOOOOooOOoOoooX @OooooooOOoO+Ooo",
"O+OoOOOoOoooOoo @ooooOoooOOoooOOO+OoOOOoOoooOoo @ooooOoooOOoooOO",
"OOOooooooOOoooo +oOOooOoooOOooooOOOooooooOOoooo +oOOooOoooOOoooo",
"OooOOoOooooooOo +oooOoooooooOooOOooOOoOooooooOo +oooOoooooooOooO",
"oooooXoooXXXooo +ooooooooOoooooooooooXoooXXXooo +ooooooooOoooooo",
"XXXXXXXXXXXXXXX XXXXXXXXXXXXXXXXXXXXXXXXXXXXXXX XXXXXXXXXXXXXXXX",
".............       .........................       ............",
".@@@@@@@@@@o@@@@O@@@@@@@@@+++++ +@@@@@@@@@@@@@@@@@@@@@@@@@+++++ ",
".O++OOOO+O oOO++o+OOOXOOO++O+++ @O++OOOO+++OOO++++OOOOOOO++O+++ ",
"X+++++++O.OO.o++ooooO+XXXXOOOO+ @++++++++++++O++OoooO+OOOOOOOO+ ",
"XXXO+++O O+OO.oOOoO+++O+++O++OO @+OO+++O+++OOOOOOOO+++O+++O++OO ",
"X++XXO+OO.o+OO.oOOXO++++OOOOOOo @+++OO++OOO++O+OO+++++++OOOOOOo ",
"@O+++OO..O++OOXoOOXoOO+++OXoOOO @O+++OOO++++OOOOOOO+oO+++OOoOOO ",
"@OOOO .O  O++OoooOXXXOO+OO.OooO @OOOOO+OO+O++OoooOOOOOO+OOoOooO ",
"@o.o.oOOo  oOOOOOXO+X.oOO..Oooo @oOOOOOOOOOOOOOOOOO+++oOOOOOooo ",
"o.o.OOOOoOO.XoOOO+OOOo....oOOOo @ooooOOOoOOOOoOOO+OOOooooooOOOo ",
"@ooOOooooooOoooOOoooOOooo.ooooo @ooOOooooooOoooOOoooOOooooooooo ",
"@oooooOooOoXOooooooooooOO.oOooo @oooooOooOoOOooooooooooOOOoOooo ",
"@XXXooooOOXooooOOoOooOOoO.ooOOo @OOoooooOOOooooOOoOooOOoOoooOOo ",
"+oooXXOOooXooooooOoOOooooo oooo +ooOOXOOoooooooooOoOOoooooXoooo ",
"+OOOXXXooooXoOOooooOOOooOXX. o. +OOOXXXooooOoOOooooOOOooOXXoooO ",
"XXXXXXXXXXXXXXXXXXXXXXXXXXXX .. XXXXXXXXXXXXXXXXXXXXXXXXXXXXXXX ",
".....   .....     ...................   .....     ..............",
"@@@@@@@@.@@@+.. O++++ @@@@@@@@@@@@@@@@@@@@@@+++ +@@@@@@@@@@@@@@@",
"+O++++O..++OOO. +OooOo +O++++++++O++++O++++OOO+ @+++++++O+++++++",
"OOOO+++.OOO++XX +OOOo.o++O+O++OOOOOO+++OOOO++OO @++O+++++O+O++OO",
"++OOOOO.OOOOOOX +OOo.o++O+++OOOO++OOOOO+OOOOOOO @+O+OO++O+++OOOO",
"OOO+XOOO.OoO++O +o..oXOOOO+O+XOoOOO+OOOOOOoO++O @OOOOOOOOO+O++Oo",
"O+OXOO+X++OOOOO o. o+OOoX+OO.OOOO+OOOO++++OOOOO @OOO+OooOOOOOOOO",
"OOX++++X OOOO+o @oOOOoOOO.Oo.O+OOOO++++OOOOOO+o @oOOooOOOOOOOO+O",
"OOOO++O+ XOoO.o @OOOOXoOO.O.oOOOOOOO++O++OOoOOo @OoooooOooOOoOOO",
"OO++OOOOX .O.  .@ooOOoOooO..OOOOOO++OOOOoOOOOoo @ooOoOoooOOOOOOO",
"OOOOOooXOoO .oX @OOooOOOOOoO.OoXOOOOOooOOoOoooX @OooooooOOoO+Ooo",
"O+OoOOOXOoooOoo @ooOOoooXOOo oOOO+OoOOOoOoooOoo @ooooOoooOOoooOO",
"OOOoooXooOOoooo +oOOXoOXooO.ooooOOOooooooOOoooo +oOOooOoooOOoooo",
"OooXXXOooooooOo +oooOXXoooo .ooOOooOOoOooooooOo +oooOoooooooOooO",
"oXXooXXooXXXooo +oooooXXXOoo ooooooooXoooXXXooo +ooooooooOoooooo",
"XXXXXXXXXXXXXXX XXXXXXXXXXXX.  XXXXXXXXXXXXXXXX XXXXXXXXXXXXXXXX",
".............       .........................       ............"
};
