/* XPM */
static char *_ffc10465dbb4b5ca6162cc7e1642087Nl04ymHbOghi92Nw[] = {
/* columns rows colors chars-per-pixel */
"64 64 205 2 ",
"   c None",
".  c #010101",
"X  c #0A0503",
"o  c #0B0B0C",
"O  c #1A0A02",
"+  c #130B04",
"@  c #131515",
"#  c #230B03",
"$  c #2E0C04",
"%  c #320E05",
"&  c #2B1904",
"*  c #341105",
"=  c #391702",
"-  c #1D1E20",
";  c #1E2021",
":  c #2C2E30",
">  c #313335",
",  c #383B3C",
"<  c #252628",
"1  c #4A1B02",
"2  c #451601",
"3  c #571E01",
"4  c #452605",
"5  c #532704",
"6  c #512E0E",
"7  c #672301",
"8  c #752C01",
"9  c #782B01",
"0  c #6F3E03",
"q  c #462F23",
"w  c #7E5007",
"e  c #6C4206",
"r  c #3D4041",
"t  c #444749",
"y  c #54595B",
"u  c #5C6166",
"i  c #656869",
"p  c #73797D",
"a  c #757676",
"s  c #756F6C",
"d  c #8A2D00",
"f  c #812D01",
"g  c #902F00",
"h  c #8A3401",
"j  c #843A02",
"k  c #933201",
"l  c #9B3400",
"z  c #9C3A01",
"x  c #983D07",
"c  c #A43B00",
"v  c #AA3D00",
"b  c #A53700",
"n  c #844703",
"m  c #944A04",
"M  c #AE4200",
"N  c #AE4801",
"B  c #B44400",
"V  c #BA4400",
"C  c #B64B00",
"Z  c #BC4B00",
"A  c #BD5200",
"S  c #B45201",
"D  c #AE571E",
"F  c #926104",
"G  c #B96B02",
"H  c #AD7105",
"J  c #955935",
"K  c #A35B2D",
"L  c #AB612A",
"P  c #C44C00",
"I  c #CB4D00",
"U  c #C45300",
"Y  c #CC5400",
"T  c #C55900",
"R  c #CD5A00",
"E  c #C8580A",
"W  c #D35400",
"Q  c #D35C00",
"!  c #DB5C00",
"~  c #E25F00",
"^  c #CE6100",
"/  c #CA6A02",
"(  c #D46300",
")  c #DC6300",
"_  c #D76A00",
"`  c #DD6B00",
"'  c #D7690C",
"]  c #DE7305",
"[  c #C96718",
"{  c #D0700B",
"}  c #E46300",
"|  c #E96600",
" . c #E46B00",
".. c #EB6C00",
"X. c #F16D00",
"o. c #E57300",
"O. c #EC7300",
"+. c #E67900",
"@. c #ED7B00",
"#. c #EA7C09",
"$. c #F17400",
"%. c #F37C00",
"&. c #F87B00",
"*. c #E67B15",
"=. c #D5762C",
"-. c #966248",
";. c #AA7A55",
":. c #A66940",
">. c #DD8804",
",. c #EE8103",
"<. c #E78403",
"1. c #F38200",
"2. c #F98500",
"3. c #F58B00",
"4. c #FB8C00",
"5. c #E89502",
"6. c #F79200",
"7. c #FA9300",
"8. c #FB9B00",
"9. c #F29800",
"0. c #E88617",
"q. c #FCA300",
"w. c #FDAC00",
"e. c #F4AB02",
"r. c #FDB200",
"t. c #FEBA00",
"y. c #DB8935",
"u. c #E48D32",
"i. c #E3903E",
"p. c #FEC000",
"a. c #B38A6C",
"s. c #B59276",
"d. c #AA8268",
"f. c #CA8244",
"g. c #DA9A57",
"h. c #D48D53",
"j. c #D29D6A",
"k. c #C59D77",
"l. c #CDA17C",
"z. c #D9A472",
"x. c #E2AA6A",
"c. c #767B80",
"v. c #797E84",
"b. c #7E8385",
"n. c #7F868A",
"m. c #818486",
"M. c #82878A",
"N. c #85898D",
"B. c #8A8B8B",
"V. c #8A8F91",
"C. c #868C90",
"Z. c #8C9195",
"A. c #91969A",
"S. c #94989B",
"D. c #9A9C9C",
"F. c #94908B",
"G. c #BA9E86",
"H. c #B3A392",
"J. c #9A9EA2",
"K. c #959BA0",
"L. c #9DA2A5",
"P. c #9EA4A9",
"I. c #A1A5A7",
"U. c #A2A6A9",
"Y. c #A5AAAD",
"T. c #A8ACAF",
"R. c #A6ADB0",
"E. c #AAAEB1",
"W. c #ADB1B4",
"Q. c #AFB5B9",
"!. c #B0B4B7",
"~. c #B2B6B9",
"^. c #B5BABD",
"/. c #BBBDBE",
"(. c #B9B8B5",
"). c #CCA785",
"_. c #D6AC84",
"`. c #DAB491",
"'. c #D8B896",
"]. c #C2A990",
"[. c #E3B58B",
"{. c #CABDAE",
"}. c #D3BBA0",
"|. c #C5C1B9",
" X c #D8C6B2",
".X c #BABFC1",
"XX c #B7BEC2",
"oX c #BDC2C5",
"OX c #BEC5C9",
"+X c #C1C4C6",
"@X c #C2C6C9",
"#X c #C5CACC",
"$X c #C8CCCE",
"%X c #CDCAC2",
"&X c #D4CFC4",
"*X c #C6CCD0",
"=X c #C9CED1",
"-X c #CDD2D5",
";X c #CFD4D8",
":X c #D1D6D9",
">X c #D5DADD",
",X c #D8DDDE",
"<X c #DBD2C6",
"1X c #D9DEE1",
"2X c #DBE0E2",
/* pixels */
"                                                                                                                                ",
"                                                                                                                                ",
"                                                            . . .                                                               ",
"                                                        4 S T T T C 1                                                           ",
"                                                        C ..$.&.2.@.Z                                                           ",
"                                                      5 ^ ,.$.%.1.%.Q 1                                                         ",
"                                                      h ` ,.O.%.2.1.) h                                                         ",
"                                                      N ] ,.O.%.%.1.` M X                                                       ",
"                                                    = A +.,.$.$.1.1. .U =                                                       ",
"                                                    8 ^ +.@.X.%.1.1.+.Y 8                                                       ",
"                                                    x _ +.@.$.%.1.2.O.Q z                                                       ",
"                                                  ; ;.y.0.,.$.#.%.1.0.=.d.:                                                     ",
"                                                  t R.OX1X&X&X X&X%XOXOXR.y                                                     ",
"                                                  v.^.@X2X:X1X-X-X-XOX#XR.a                                                     ",
"                                                @ V.oX@X:X:X1X:X-X$X#XOXR.A.o                                                   ",
"                                                > J.oX=X1X:X:X1X;X-X#XOXQ.L.r                                                   ",
"                                                u E.oX=X>X>X:X:X>X;X*X*XXXR.i                                                   ",
"                                                n.Q.OX=X:X:X:X:X:X;X*XOXXXW.C.                                                  ",
"                                              > A.XX#X-X2X-X1X-X;X*X*X*XXXW.A.>                                                 ",
"                                              y L.oX#X-X,X=X1X-X:X*X*X*XXXQ.K.y                                                 ",
"                                              c.Y.oX#X=X,X=X,X:X:X-X*X-XOXQ.J.c.                                                ",
"                                            O F.E.oX=X-X,X-X:X;X;X-X*X-XoXXXR.V.#                                               ",
"                                            3 L G.|.-X:X>X;X,X;X-X;X*X*XoX(.s.D 5                                               ",
"                                            f A ( ] u.x.j.[.'.'.`._.z.g.i.' U B d                                               ",
"                                          O z T / ` +.@.O.X.$.$.1.1.1.1.O. .R C k O                                             ",
"                                          2 N R _ ` +.@...$.$.$.%.1.1.1.@. .Q P M 2                                             ",
"                                          8 S ^ _  .+.%...X.$.$.%.1.1.1.%. .Q U B 8                                             ",
"                                          k A ^ _ o.+.@...X.$.%.%.%.1.1.@.o.! U B k                                             ",
"                                        = v T ^ _ o.@.$...O.$.$.%.1.%.1.1.O.) Y C c *                                           ",
"                                        7 M T ( _  .+.O...X.O.$.@.%.1.1.%.+.) Y C M 3                                           ",
"                                        h C R ( `  .+.O...X.$.$.%.%.1.1.&.+.) Q Z M d                                           ",
"                                      # z A ^ ( ` o.+.$...X.$.$.%.1.1.1.%.O.` Q U B z #                                         ",
"                                      q M T R _ `  .+.......$.$.%.%.1.1.@.O. .Q U V c q                                         ",
"                                      u L U ( )  .O.+.......X.$.%.%.%.1.1.@. .( Y C K i                                         ",
"                                    o p P.a.[ ` ` o.O.....X.$.%.%.%.%.,.%.@...) E a.B.v.o                                       ",
"                                    > C.L.Q.XX].j.y.#.......X.$.$.%.%.1.1.u.j.G.E.U.A.N.r                                       ",
"                                    y V.I.!.oX+X#X-X=X%X{.}.'.'.'.}.{.+X*XOXOX~.Y.J.J.N.y                                       ",
"                                  . p V.U.W.oXOX@X=X=X#X=X=X1X=X=X$X#X#X*XOXoXQ.Y.P.P.V.c.o                                     ",
"                                  ; b.L.T.Q.XX+XoX#X#X#X-X=X:X=X$X@X#X#X#X@XXXE.E.Y.J.A.b.<                                     ",
"                                . t V.L.E.(.oX@XoX#X#X#X=X#X>X$X=X#X#X#X=XoXOX~.E.E.U.A.M.t X                                   ",
"                      n O.o. .) Q s S.U.W.^./.@X#X#X#X#X$X#X-X$X#X#X@X*X@X@X@X!.E.E.I.A.n.a b V I I I j                         ",
"                      ` O...} Q Y a D.U.!.^.XXoX$X$X+X#X=X-X=X-X=X#X@X#X+X#X+X!.W.E.L.S.n.M.b v P I W Y                         ",
"                    5 @.O. .! W B b.P.Y.!.!.oX+X#X$X@X@X-X=X-X$X$X#X@X#X@X#X.X~.E.E.U.D.N.m.k v V I W W 5                       ",
"                    m %.O...! Y c J U.U.!./.+X+X+X#X+X+X$X$X;X$X#X@X@X#X@X@XXX!.W.!.U.J.Z.-.k b v I W ! x                       ",
"                    / O... .! P l M ;.D.W.|.+X+X+X#X.X@X#X*X=X=X@X+X@X@X#X@X/.W.!.T.T.D.L M g l P I W ! A X                     ",
"                  4 @.O... .Q B z V U [ a.(.oX+X@X@X+X$X@X=X=X*X#X+X#XOX@X@XoX~.W.T.s.D B v l l v I W W ) =                     ",
"                  n @.O.O. .) c c C U U R ' f.).|.*X.X*X+X=X#X*X#X@X@XOX@X@X/.k.f.' Y P C M b k V I I ! ) h                     ",
"                  / 1.O.o. .Q l v Z U Y Q ( ) ` } *.=.h.z.l.`.)._._.j.g.u.*.$.O.| ! Y U V M c d P W W W ) R .                   ",
"                & ,.,.@.O...R l M Z U R Q Q ) ` `  .} } | | ....O...O.$.$.+.O.O. .) W U V B b k P W W ! ) o.&                   ",
"                e 2.@.@.O.o.) v M P Y Y W ( ) }  .} ) } | | | ......O.O.O.O.O.O. .` W Y Z V v c Q ) )  .O.3.n                   ",
"                G 3.,.@.+.@.O.Y V Z Y Y Q ! ` ` ` } ~ } } } | ........$.O.O.O... .} W Y P B B P o.+.+.1.3.5.>.                  ",
"              + <.3.1.1.%.,.@...W P P Y ( ( ) }  .} } ~ } | | | ......O.O..... . .) W W P P W  .1.1.1.1.3.6.5.&                 ",
"              e 6.3.3.3.1.1.1.1.O.} W W W W ! } ` ! ~ ~ | | | | ........O.......} } Q W Q } %.6.3.1.3.3.6.7.q.n                 ",
"              G 6.6.3.3.3.3.3.3.1.%.$...} ! ! ! ! ~ ~ ~ | ~ | | | ............ .....O.$.%.2.2.3.3.3.3.9.9.8.q.H                 ",
"            . <.8.7.6.6.3.6.3.6.6.%.1.2.&.$.X.X.| | ~ | ~ | | | | ........$.$.&.1.2.4.7.2.&.2.7.7.6.6.7.8.8.q.5.+               ",
"            6 q.8.8.6.8.7.7.8.7.7.&.&.2.4.2.2.2.&.&.&.X.X.X.X.X.X.$.$.%.&.4.7.4.7.4.7.2.1.1.7.8.8.8.8.8.q.q.e.w.e               ",
"            H q.q.q.q.8.8.7.8.8.8.4.1.2.2.2.4.4.4.7.4.4.4.4.4.2.2.4.4.7.7.7.7.4.4.2.2.2.2.7.8.q.q.8.q.q.q.w.w.r.H               ",
"          . >.w.e.q.q.q.q.q.q.w.q.8.2.2.4.2.2.4.4.4.4.4.4.4.4.4.4.4.4.4.4.4.4.4.4.4.4.2.2.q.w.w.w.w.w.w.w.w.r.t.e.X             ",
"          = w.r.r.w.w.w.w.w.w.w.w.w.8.7.7.4.7.7.4.4.4.7.4.4.4.4.4.4.7.4.7.7.4.7.7.4.7.7.q.r.r.r.w.r.r.r.r.t.t.t.p.4             ",
"          n w.r.r.r.w.w.r.r.r.r.r.r.r.w.q.q.8.8.8.8.8.8.8.8.8.8.8.8.8.8.8.8.8.8.q.q.q.r.r.r.r.t.t.t.t.r.t.t.t.t.p.F             ",
"          j 9.q.q.w.e.q.w.q.e.w.w.w.w.w.w.w.w.w.w.r.r.r.r.r.r.r.r.r.r.r.w.r.w.r.r.w.r.r.r.r.r.r.r.r.r.r.r.r.r.r.e.n             ",
"          = B Z U U Y Y Y Q Y Q R R R R Q R R Q Q Q Q Q Q ( Q Q Q Q Q Q ( Q Q Q Q Q ( Q ( Q Q Q Q Q Q Q Q Q R T P 1             ",
"            + # $ $ $ $ $ $ $ $ % % $ % $ $ % % $ % $ % % % % % % % % * % * * * * * * % * * * * * * * $ $ * $ $ X               ",
"                                                                                                                                "
};
