/* XPM */
static char *_2f184dec81641dcaf3e2d67a75f07aa74L8zaEoYnNtevqY[] = {
/* columns rows colors chars-per-pixel */
"61 75 43 1 ",
"  c None",
". c #DFDFDF",
"X c gray88",
"o c #E3E1E1",
"O c #E6E6E6",
"+ c #E7E6E6",
"@ c gray91",
"# c #EBEAEA",
"$ c #EBEAEB",
"% c gray92",
"& c #ECEBEC",
"* c gray93",
"= c #EFEDED",
"- c #EEEEEE",
"; c #EFEEEF",
": c #EFEFEF",
"> c #F1EFF1",
", c gray94",
"< c #F1F1F1",
"1 c #F2F1F2",
"2 c #F3F1F3",
"3 c gray95",
"4 c #F3F2F3",
"5 c #F3F3F3",
"6 c #F4F3F4",
"7 c #F4F4F4",
"8 c #F5F4F4",
"9 c gray96",
"0 c #F6F6F6",
"q c #F7F6F7",
"w c gray97",
"e c #F8F7F8",
"r c #F8F8F8",
"t c #F9F9F9",
"y c #FBF9FB",
"u c gray98",
"i c #FBFAFB",
"p c #FBFBFB",
"a c #FCFBFC",
"s c gray99",
"d c #FDFDFD",
"f c #FEFEFE",
"g c white",
/* pixels */
"                                            O                ",
"                                         7ggg                ",
"                                       rggggr                ",
"                                     7ggggggr                ",
"                                    rggggggg7                ",
"                                   rgggggggg7                ",
"                                  rggggggggg                 ",
"                                 7gggggggggr                 ",
"                                ,gggggggggg-                 ",
"                                ggggggggggr                  ",
"                               ,gggggggggg                   ",
"                               rggggggggg7                   ",
"                               gggggggggr                    ",
"                               ggggggggr                     ",
"                              ,ggggggg7                      ",
"                              6gggggr,                       ",
"                              6gggr,                         ",
"                                                             ",
"                                          -:--               ",
"             ,7ggggggr7>              ,7ggggggggr7           ",
"           7rgggggggggggg77        ,eggggggggggggggr7        ",
"         -rgggggggggggggggggr,  7rgggggggggggggggggggr       ",
"        7gggggggggggggggggggggggggggggggggggggggggggggg,     ",
"       rgggggggggggggggggggggggggggggggggggggggggggggggg7    ",
"      rgggggggggggggggggggggggggggggggggggggggggggggggggg6   ",
"     7gggggggggggggggggggggggggggggggggggggggggggggggggggg   ",
"    -gggggggggggggggggggggggggggggggggggggggggggggggggggg,   ",
"    gggggggggggggggggggggggggggggggggggggggggggggggggggg     ",
"   7ggggggggggggggggggggggggggggggggggggggggggggggggggr      ",
"   ggggggggggggggggggggggggggggggggggggggggggggggggggg       ",
"  7gggggggggggggggggggggggggggggggggggggggggggggggggg-       ",
"  rgggggggggggggggggggggggggggggggggggggggggggggggggr        ",
"  gggggggggggggggggggggggggggggggggggggggggggggggggg         ",
" 7ggggggggggggggggggggggggggggggggggggggggggggggggg7         ",
" rggggggggggggggggggggggggggggggggggggggggggggggggg-         ",
" rggggggggggggggggggggggggggggggggggggggggggggggggg          ",
" gggggggggggggggggggggggggggggggggggggggggggggggggr          ",
"oggggggggggggggggggggggggggggggggggggggggggggggggge          ",
"@gggggggggggggggggggggggggggggggggggggggggggggggggr          ",
"@gggggggggggggggggggggggggggggggggggggggggggggggggr          ",
"&gggggggggggggggggggggggggggggggggggggggggggggggggr          ",
"&gggggggggggggggggggggggggggggggggggggggggggggggggr          ",
"@gggggggggggggggggggggggggggggggggggggggggggggggggr          ",
"ogggggggggggggggggggggggggggggggggggggggggggggggggg          ",
" gggggggggggggggggggggggggggggggggggggggggggggggggg          ",
" gggggggggggggggggggggggggggggggggggggggggggggggggg7         ",
" rgggggggggggggggggggggggggggggggggggggggggggggggggg         ",
" rgggggggggggggggggggggggggggggggggggggggggggggggggg6        ",
" 7ggggggggggggggggggggggggggggggggggggggggggggggggggg        ",
" >ggggggggggggggggggggggggggggggggggggggggggggggggggg7       ",
"  gggggggggggggggggggggggggggggggggggggggggggggggggggg,      ",
"  rgggggggggggggggggggggggggggggggggggggggggggggggggggg,     ",
"  7ggggggggggggggggggggggggggggggggggggggggggggggggggggg7    ",
"   ggggggggggggggggggggggggggggggggggggggggggggggggggggggr   ",
"   gggggggggggggggggggggggggggggggggggggggggggggggggggggggg, ",
"   7gggggggggggggggggggggggggggggggggggggggggggggggggggggggg.",
"    gggggggggggggggggggggggggggggggggggggggggggggggggggggggr ",
"    rgggggggggggggggggggggggggggggggggggggggggggggggggggggg, ",
"    -gggggggggggggggggggggggggggggggggggggggggggggggggggggg  ",
"     rgggggggggggggggggggggggggggggggggggggggggggggggggggg,  ",
"     -gggggggggggggggggggggggggggggggggggggggggggggggggggg   ",
"      rgggggggggggggggggggggggggggggggggggggggggggggggggg7   ",
"      -gggggggggggggggggggggggggggggggggggggggggggggggggg    ",
"       7gggggggggggggggggggggggggggggggggggggggggggggggg,    ",
"        gggggggggggggggggggggggggggggggggggggggggggggggr     ",
"        ,gggggggggggggggggggggggggggggggggggggggggggggg      ",
"         rgggggggggggggggggggggggggggggggggggggggggggg7      ",
"          rggggggggggggggggggggggggggggggggggggggggggr       ",
"           gggggggggggggggggggggggggggggggggggggggggg        ",
"           ,gggggggggggggggggggggggggggggggggggggggg         ",
"            ,gggggggggggggggggggggggggggggggggggggg-         ",
"             ,ggggggggggggggar777eragggggggggggggg,          ",
"              ,ggggggggggg7         :7ggggggggggr            ",
"                7gggggr7                7rggggr,             ",
"                  O%@                      oO                "
};
